{"glyphs":{"0":{"ha":758,"x_min":61,"x_max":697,"o":"m 547 607 q 539 648 547 629 q 516 683 530 668 q 481 706 501 697 q 440 714 462 714 l 318 714 q 277 706 296 714 q 242 683 257 697 q 219 648 228 668 q 211 607 211 629 l 211 364 q 219 323 211 342 q 242 289 228 303 q 277 266 257 274 q 318 257 296 257 l 440 257 q 482 266 463 257 q 516 288 502 274 q 539 322 530 302 q 547 364 547 342 l 547 607 m 697 243 q 679 144 697 189 q 623 61 661 99 q 440 -16 546 -16 l 318 -16 q 136 61 212 -16 q 79 144 98 99 q 61 243 61 190 l 61 729 q 79 827 61 783 q 136 909 98 872 q 318 986 212 986 l 440 986 q 621 909 545 986 q 697 729 697 836 l 697 243 z "},"1":{"ha":758,"x_min":243,"x_max":515,"o":"m 243 -16 l 243 257 l 304 257 l 304 714 l 243 714 l 243 986 l 454 986 l 454 257 l 515 257 l 515 -16 l 243 -16 z "},"2":{"ha":758,"x_min":61,"x_max":697,"o":"m 61 -16 l 61 304 q 138 485 61 408 q 221 542 176 524 q 318 561 265 561 l 410 561 q 439 567 425 561 q 464 584 453 574 q 480 609 474 595 q 486 637 486 623 q 480 667 486 653 q 464 691 474 681 q 439 708 453 702 q 410 714 425 714 l 61 714 l 61 986 l 440 986 q 621 909 545 986 q 697 729 697 836 l 697 668 q 678 571 697 615 q 621 488 659 526 q 440 411 545 411 l 288 411 q 259 405 273 411 q 234 388 245 399 q 217 364 224 378 q 211 335 211 350 l 211 257 l 697 257 l 697 -16 l 61 -16 z "},"3":{"ha":758,"x_min":61,"x_max":697,"o":"m 697 243 q 621 62 697 137 q 440 -16 544 -16 l 61 -16 l 61 257 l 410 257 q 439 263 425 257 q 464 280 453 269 q 480 305 474 291 q 486 335 486 319 q 480 364 486 350 q 464 388 474 378 q 439 405 453 399 q 410 411 425 411 l 182 411 l 182 561 l 410 561 q 439 567 425 561 q 464 584 453 574 q 480 609 474 595 q 486 637 486 623 q 480 667 486 653 q 464 691 474 681 q 439 708 453 702 q 410 714 425 714 l 61 714 l 61 986 l 440 986 q 621 909 545 986 q 697 729 697 836 l 697 717 q 685 637 697 675 q 647 567 673 600 q 553 485 610 511 q 660 387 622 451 q 697 243 697 323 z "},"4":{"ha":758,"x_min":61,"x_max":697,"o":"m 547 -16 l 547 155 l 61 155 l 61 743 l 211 743 l 211 428 l 547 428 l 547 986 l 697 986 l 697 -16 l 547 -16 z "},"5":{"ha":758,"x_min":61,"x_max":697,"o":"m 697 243 q 621 62 697 137 q 440 -16 544 -16 l 61 -16 l 61 257 l 410 257 q 439 263 425 257 q 464 280 453 269 q 480 305 474 291 q 486 335 486 319 q 480 364 486 350 q 464 388 474 378 q 439 405 453 399 q 410 411 425 411 l 61 411 l 61 986 l 636 986 l 636 714 l 211 714 l 211 561 l 440 561 q 621 485 545 561 q 697 304 697 408 l 697 243 z "},"6":{"ha":758,"x_min":61,"x_max":697,"o":"m 547 335 q 541 364 547 350 q 524 388 535 378 q 499 405 513 399 q 471 411 486 411 l 288 411 q 259 405 273 411 q 234 388 245 399 q 217 364 224 378 q 211 335 211 350 q 217 305 211 319 q 234 280 224 291 q 259 263 245 269 q 288 257 273 257 l 471 257 q 499 263 486 257 q 524 280 513 269 q 541 305 535 291 q 547 335 547 319 m 697 243 q 679 144 697 189 q 623 61 661 99 q 440 -16 546 -16 l 318 -16 q 221 4 265 -16 q 138 62 176 24 q 61 243 61 137 l 61 729 q 79 828 61 784 q 136 911 98 872 q 220 968 175 949 q 318 986 265 986 l 636 986 l 636 714 l 318 714 q 275 706 295 714 q 241 684 256 698 q 219 650 227 669 q 211 607 211 630 l 211 525 q 248 551 227 542 q 294 561 269 561 l 440 561 q 621 485 545 561 q 697 304 697 408 l 697 243 z "},"7":{"ha":758,"x_min":50,"x_max":697,"o":"m 253 -16 l 50 -16 l 488 714 l 61 714 l 61 986 l 697 986 l 697 725 l 253 -16 z "},"8":{"ha":758,"x_min":61,"x_max":697,"o":"m 547 637 q 541 667 547 653 q 524 691 535 681 q 499 708 513 702 q 471 714 486 714 l 288 714 q 259 708 273 714 q 234 691 245 702 q 217 667 224 681 q 211 637 211 653 q 217 609 211 623 q 234 584 224 595 q 259 567 245 574 q 288 561 273 561 l 471 561 q 499 567 486 561 q 524 584 513 574 q 541 609 535 595 q 547 637 547 623 m 547 335 q 541 364 547 350 q 524 388 535 378 q 499 405 513 399 q 471 411 486 411 l 288 411 q 259 405 273 411 q 234 388 245 399 q 217 364 224 378 q 211 335 211 350 q 217 305 211 319 q 234 280 224 291 q 259 263 245 269 q 288 257 273 257 l 471 257 q 499 263 486 257 q 524 280 513 269 q 541 305 535 291 q 547 335 547 319 m 697 243 q 679 144 697 189 q 623 61 661 99 q 440 -16 546 -16 l 318 -16 q 136 61 212 -16 q 79 144 98 99 q 61 243 61 189 l 61 279 q 165 486 61 409 q 61 693 61 562 l 61 729 q 79 828 61 784 q 136 911 98 872 q 220 968 175 949 q 318 986 265 986 l 440 986 q 539 968 494 986 q 623 911 584 949 q 679 828 661 872 q 697 729 697 784 l 697 693 q 593 486 697 562 q 697 279 697 409 l 697 243 z "},"9":{"ha":758,"x_min":61,"x_max":697,"o":"m 547 637 q 541 667 547 653 q 524 691 535 681 q 499 708 513 702 q 471 714 486 714 l 288 714 q 259 708 273 714 q 234 691 245 702 q 217 667 224 681 q 211 637 211 653 q 217 609 211 623 q 234 584 224 595 q 259 567 245 574 q 288 561 273 561 l 471 561 q 499 567 486 561 q 524 584 513 574 q 541 609 535 595 q 547 637 547 623 m 697 243 q 679 144 697 189 q 623 61 661 99 q 440 -16 546 -16 l 121 -16 l 121 257 l 440 257 q 482 266 463 257 q 516 288 502 274 q 539 322 530 302 q 547 364 547 342 l 547 447 q 464 411 515 411 l 318 411 q 221 430 265 411 q 138 488 176 449 q 80 571 99 526 q 61 668 61 615 l 61 729 q 79 828 61 784 q 136 911 98 872 q 220 968 175 949 q 318 986 265 986 l 440 986 q 621 909 545 986 q 697 729 697 836 l 697 243 z "}," ":{"ha":547,"x_min":0,"x_max":0,"o":""},"!":{"ha":321,"x_min":60,"x_max":261,"o":"m 61 -16 l 61 184 l 260 184 l 260 -16 l 61 -16 m 210 277 l 111 277 l 60 986 l 261 986 l 210 277 z "},"\"":{"ha":587,"x_min":58,"x_max":529,"o":"m 210 677 l 111 677 l 58 1047 l 262 1047 l 210 677 m 478 677 l 378 677 l 325 1047 l 529 1047 l 478 677 z "},"#":{"ha":782,"x_min":61,"x_max":722,"o":"m 328 597 l 444 597 l 456 714 l 339 714 l 328 597 m 559 471 l 549 325 l 422 325 l 433 471 l 317 471 l 306 325 l 179 325 l 191 471 l 61 471 l 61 597 l 201 597 l 212 714 l 61 714 l 61 840 l 224 840 l 236 986 l 363 986 l 350 840 l 467 840 l 479 986 l 606 986 l 593 840 l 722 840 l 722 714 l 582 714 l 571 597 l 722 597 l 722 471 l 559 471 z "},"$":{"ha":758,"x_min":61,"x_max":697,"o":"m 697 364 q 621 183 697 260 q 454 107 551 113 l 454 -16 l 304 -16 l 304 107 l 61 107 l 61 379 l 440 379 q 473 393 459 379 q 486 425 486 406 q 473 458 486 445 q 440 471 459 471 l 318 471 q 221 490 265 471 q 138 549 176 510 q 61 729 61 623 q 138 909 61 836 q 214 965 173 945 q 304 986 255 984 l 304 1108 l 454 1108 l 454 986 l 697 986 l 697 714 l 318 714 q 286 701 299 714 q 272 668 272 688 q 286 636 272 649 q 318 623 299 623 l 440 623 q 621 546 545 623 q 697 364 697 469 z "},"%":{"ha":1329,"x_min":61,"x_max":1268,"o":"m 1149 364 q 1142 394 1149 380 q 1125 418 1136 408 q 1101 435 1115 429 q 1072 441 1087 441 l 981 441 q 951 435 965 441 q 927 418 937 429 q 910 394 916 408 q 904 364 904 380 l 904 273 q 910 244 904 258 q 927 220 916 230 q 951 203 937 210 q 981 197 965 197 l 1072 197 q 1102 203 1088 197 q 1127 219 1116 209 q 1143 243 1137 229 q 1149 273 1149 257 l 1149 364 m 425 699 q 419 728 425 714 q 402 752 413 742 q 378 769 392 763 q 349 775 364 775 l 257 775 q 228 769 241 775 q 203 752 214 763 q 186 728 193 742 q 180 699 180 714 l 180 607 q 186 578 180 592 q 203 554 193 564 q 228 537 214 543 q 257 530 241 530 l 349 530 q 379 536 366 530 q 404 552 393 542 q 419 577 414 563 q 425 607 425 591 l 425 699 m 589 -16 l 589 986 l 741 986 l 741 -16 l 589 -16 m 546 517 q 488 376 546 435 q 349 319 431 319 l 257 319 q 119 378 178 319 q 61 517 61 436 l 61 790 q 119 928 61 869 q 257 986 178 986 l 349 986 q 488 928 429 986 q 546 790 546 869 l 546 517 m 1268 182 q 1254 107 1268 141 q 1210 43 1239 73 q 1146 -1 1180 14 q 1072 -16 1113 -16 l 981 -16 q 842 43 900 -16 q 783 182 783 102 l 783 456 q 798 531 783 496 q 842 595 812 565 q 981 653 900 653 l 1072 653 q 1210 595 1150 653 q 1254 531 1239 565 q 1268 456 1268 496 l 1268 182 z "},"&":{"ha":758,"x_min":61,"x_max":697,"o":"m 272 335 q 278 305 272 319 q 295 280 284 291 q 319 263 305 269 q 349 257 333 257 l 473 257 l 473 411 l 349 411 q 319 405 333 411 q 295 388 305 399 q 278 364 284 378 q 272 335 272 350 m 318 -16 q 221 4 265 -16 q 138 62 176 24 q 61 243 61 137 q 98 388 61 323 q 205 486 136 452 q 144 528 171 503 q 98 584 117 553 q 71 652 80 616 q 61 729 61 689 q 138 909 61 836 q 221 967 176 948 q 318 986 265 986 l 697 986 l 697 714 l 349 714 q 319 708 333 714 q 295 691 305 702 q 278 667 284 681 q 272 637 272 653 q 278 609 272 623 q 295 584 284 595 q 319 567 305 574 q 349 561 333 561 l 697 561 l 697 411 l 625 411 l 625 257 l 697 257 l 697 -16 l 318 -16 z "},"'":{"ha":321,"x_min":58,"x_max":262,"o":"m 210 677 l 111 677 l 58 1047 l 262 1047 l 210 677 z "},"(":{"ha":454,"x_min":61,"x_max":334,"o":"m 318 -136 q 221 -117 265 -136 q 138 -60 176 -98 q 61 121 61 17 l 61 850 q 138 1032 61 956 q 334 1108 214 1108 l 334 836 q 286 828 309 836 q 247 805 264 819 q 221 770 231 790 q 211 729 211 751 l 211 243 q 221 202 211 221 q 247 168 231 182 q 286 145 264 153 q 334 136 309 136 l 334 -122 l 318 -136 z "},")":{"ha":454,"x_min":121,"x_max":393,"o":"m 393 121 q 317 -60 393 17 q 121 -136 242 -136 l 121 136 q 169 145 146 136 q 208 168 191 153 q 233 202 224 182 q 243 243 243 221 l 243 729 q 233 770 243 751 q 208 805 224 790 q 169 828 191 819 q 121 836 146 836 l 121 1108 q 317 1032 241 1108 q 393 850 393 956 l 393 121 z "},"*":{"ha":619,"x_min":56,"x_max":564,"o":"m 500 546 l 374 619 l 374 471 l 248 471 l 248 619 l 119 546 l 56 656 l 183 729 l 56 803 l 119 913 l 248 838 l 248 986 l 374 986 l 374 838 l 500 913 l 564 803 l 435 729 l 564 656 l 500 546 z "},"+":{"ha":636,"x_min":61,"x_max":576,"o":"m 382 363 l 382 168 l 256 168 l 256 363 l 61 363 l 61 489 l 256 489 l 256 684 l 382 684 l 382 489 l 576 489 l 576 363 l 382 363 z "},",":{"ha":321,"x_min":58,"x_max":262,"o":"m 210 -184 l 111 -184 l 58 184 l 262 184 l 210 -184 z "},"-":{"ha":636,"x_min":61,"x_max":576,"o":"m 61 363 l 61 489 l 576 489 l 576 363 l 61 363 z "},"­":{"ha":636,"x_min":61,"x_max":576,"o":"m 61 363 l 61 489 l 576 489 l 576 363 l 61 363 z "},".":{"ha":321,"x_min":61,"x_max":260,"o":"m 61 -16 l 61 184 l 260 184 l 260 -16 l 61 -16 z "},"/":{"ha":619,"x_min":26,"x_max":593,"o":"m 168 -123 l 26 -74 l 452 1096 l 593 1044 l 168 -123 z "},":":{"ha":321,"x_min":61,"x_max":260,"o":"m 61 -16 l 61 184 l 260 184 l 260 -16 l 61 -16 m 61 471 l 61 671 l 260 671 l 260 471 l 61 471 z "},";":{"ha":321,"x_min":58,"x_max":262,"o":"m 61 471 l 61 671 l 260 671 l 260 471 l 61 471 m 210 -184 l 111 -184 l 58 184 l 262 184 l 210 -184 z "},";":{"ha":321,"x_min":58,"x_max":262,"o":"m 61 471 l 61 671 l 260 671 l 260 471 l 61 471 m 210 -184 l 111 -184 l 58 184 l 262 184 l 210 -184 z "},"<":{"ha":611,"x_min":61,"x_max":557,"o":"m 488 92 l 61 368 l 61 482 l 488 760 l 557 653 l 205 425 l 557 199 l 488 92 z "},"=":{"ha":636,"x_min":61,"x_max":576,"o":"m 61 253 l 61 379 l 576 379 l 576 253 l 61 253 m 61 471 l 61 597 l 576 597 l 576 471 l 61 471 z "},">":{"ha":611,"x_min":54,"x_max":550,"o":"m 123 92 l 54 199 l 404 425 l 54 653 l 123 760 l 550 482 l 550 368 l 123 92 z "},"?":{"ha":685,"x_min":61,"x_max":625,"o":"m 121 -16 l 121 184 l 321 184 l 321 -16 l 121 -16 m 625 729 q 606 631 625 676 q 549 549 587 587 q 465 490 510 510 q 367 471 420 471 l 285 471 l 271 277 l 171 277 l 146 623 l 367 623 q 399 636 387 623 q 412 668 412 649 q 399 701 412 688 q 367 714 387 714 l 61 714 l 61 986 l 367 986 q 549 909 472 986 q 625 729 625 834 z "},"@":{"ha":1122,"x_min":61,"x_max":1063,"o":"m 688 374 q 669 422 688 403 q 619 441 650 441 l 529 441 q 498 435 513 441 q 471 418 483 429 q 452 394 460 408 q 443 364 444 380 q 438 295 439 319 q 436 267 436 270 q 455 217 436 237 q 504 197 475 197 l 596 197 q 626 203 612 197 q 652 220 641 210 q 671 245 664 231 q 681 275 679 259 q 686 344 684 320 q 688 374 688 368 m 1063 243 q 986 61 1063 136 q 804 -16 911 -16 l 656 -16 l 656 7 q 543 -16 620 -16 l 514 -16 l 489 -16 q 419 -2 450 -16 q 359 36 387 11 q 306 167 306 90 q 306 173 306 168 q 307 184 306 178 l 307 183 l 332 457 q 354 532 336 497 q 401 596 371 568 q 545 653 463 653 l 636 653 q 764 600 713 653 l 764 602 q 805 544 792 576 q 818 472 818 511 q 818 465 818 470 q 817 453 818 459 l 817 454 l 785 100 l 840 100 q 883 108 863 100 q 917 130 903 116 q 939 164 931 144 q 947 207 947 184 l 947 765 q 939 806 947 787 q 916 841 930 826 q 882 864 901 855 q 840 872 862 872 l 282 872 q 241 864 260 872 q 207 841 221 855 q 183 806 192 826 q 175 765 175 787 l 175 -36 q 183 -77 175 -58 q 207 -112 192 -97 q 241 -135 221 -126 q 282 -143 260 -143 l 940 -143 l 940 -258 l 318 -258 q 136 -180 213 -258 q 79 -98 98 -143 q 61 0 61 -53 l 61 729 q 79 827 61 783 q 136 909 98 872 q 318 986 212 986 l 804 986 q 986 909 909 986 q 1063 729 1063 834 l 1063 243 z "},"A":{"ha":758,"x_min":61,"x_max":697,"o":"m 211 379 l 547 379 l 547 607 q 539 650 547 630 q 516 684 530 669 q 482 706 502 698 q 440 714 463 714 l 318 714 q 277 706 296 714 q 242 683 257 697 q 219 648 228 668 q 211 607 211 629 l 211 379 m 547 -16 l 547 228 l 211 228 l 211 -16 l 61 -16 l 61 729 q 138 909 61 836 q 221 967 176 948 q 318 986 265 986 l 440 986 q 539 968 494 986 q 623 911 584 949 q 679 828 661 872 q 697 729 697 784 l 697 -16 l 547 -16 z "},"B":{"ha":758,"x_min":61,"x_max":697,"o":"m 486 335 q 480 364 486 350 q 464 388 474 378 q 439 405 453 399 q 410 411 425 411 l 211 411 l 211 257 l 410 257 q 439 263 425 257 q 464 280 453 269 q 480 305 474 291 q 486 335 486 319 m 486 637 q 480 667 486 653 q 464 691 474 681 q 439 708 453 702 q 410 714 425 714 l 211 714 l 211 561 l 410 561 q 439 567 425 561 q 464 584 453 574 q 480 609 474 595 q 486 637 486 623 m 697 243 q 621 62 697 137 q 440 -16 544 -16 l 61 -16 l 61 986 l 440 986 q 621 909 545 986 q 697 729 697 836 l 697 717 q 685 637 697 675 q 647 567 673 600 q 553 485 610 511 q 660 387 622 451 q 697 243 697 323 z "},"C":{"ha":758,"x_min":61,"x_max":697,"o":"m 318 -16 q 221 4 265 -16 q 138 62 176 24 q 61 243 61 137 l 61 729 q 138 909 61 836 q 221 967 176 948 q 318 986 265 986 l 697 986 l 697 714 l 318 714 q 277 706 296 714 q 242 683 257 697 q 219 648 228 668 q 211 607 211 629 l 211 364 q 219 323 211 342 q 242 289 228 303 q 277 266 257 274 q 318 257 296 257 l 697 257 l 697 -16 l 318 -16 z "},"D":{"ha":758,"x_min":61,"x_max":697,"o":"m 547 607 q 539 648 547 629 q 516 683 530 668 q 481 706 501 697 q 440 714 462 714 l 211 714 l 211 257 l 440 257 q 482 266 463 257 q 516 288 502 274 q 539 322 530 302 q 547 364 547 342 l 547 607 m 697 243 q 679 144 697 189 q 623 61 661 99 q 440 -16 546 -16 l 61 -16 l 61 986 l 440 986 q 621 909 545 986 q 697 729 697 836 l 697 243 z "},"E":{"ha":636,"x_min":61,"x_max":576,"o":"m 318 -16 q 136 61 212 -16 q 79 144 98 99 q 61 243 61 189 l 61 986 l 576 986 l 576 714 l 211 714 l 211 561 l 454 561 l 454 411 l 211 411 l 211 364 q 219 322 211 342 q 241 288 227 302 q 275 266 256 274 q 318 257 295 257 l 576 257 l 576 -16 l 318 -16 z "},"F":{"ha":607,"x_min":61,"x_max":576,"o":"m 318 714 q 275 706 295 714 q 241 684 256 698 q 219 650 227 669 q 211 607 211 630 l 211 561 l 454 561 l 454 411 l 211 411 l 211 -16 l 61 -16 l 61 729 q 79 828 61 784 q 136 911 98 872 q 220 968 175 949 q 318 986 265 986 l 576 986 l 576 714 l 318 714 z "},"G":{"ha":758,"x_min":61,"x_max":697,"o":"m 318 714 q 277 706 296 714 q 242 683 257 697 q 219 648 228 668 q 211 607 211 629 l 211 364 q 219 323 211 342 q 242 289 228 303 q 277 266 257 274 q 318 257 296 257 l 534 257 l 534 411 l 364 411 l 364 561 l 685 561 l 685 -16 l 318 -16 q 221 4 265 -16 q 138 62 176 24 q 61 243 61 137 l 61 729 q 138 909 61 836 q 221 967 176 948 q 318 986 265 986 l 697 986 l 697 714 l 318 714 z "},"H":{"ha":758,"x_min":61,"x_max":697,"o":"m 547 -16 l 547 350 l 211 350 l 211 -16 l 61 -16 l 61 986 l 211 986 l 211 623 l 547 623 l 547 986 l 697 986 l 697 -16 l 547 -16 z "},"I":{"ha":393,"x_min":61,"x_max":334,"o":"m 61 -16 l 61 257 l 121 257 l 121 714 l 61 714 l 61 986 l 334 986 l 334 714 l 272 714 l 272 257 l 334 257 l 334 -16 l 61 -16 z "},"J":{"ha":515,"x_min":61,"x_max":454,"o":"m 454 243 q 436 144 454 189 q 379 61 418 99 q 197 -16 302 -16 l 61 -16 l 61 257 l 197 257 q 239 266 220 257 q 273 288 259 274 q 296 322 288 302 q 304 364 304 342 l 304 714 l 61 714 l 61 986 l 454 986 l 454 243 z "},"K":{"ha":758,"x_min":61,"x_max":697,"o":"m 547 -16 l 547 243 q 539 286 547 266 q 516 319 530 305 q 482 342 502 334 q 440 350 463 350 l 211 350 l 211 -16 l 61 -16 l 61 986 l 211 986 l 211 623 l 440 623 q 482 631 463 623 q 516 653 502 639 q 539 687 530 667 q 547 729 547 706 l 547 986 l 697 986 l 697 704 q 666 579 697 637 q 578 486 635 521 q 628 445 606 469 q 666 393 650 421 q 689 332 681 364 q 697 267 697 300 l 697 -16 l 547 -16 z "},"L":{"ha":636,"x_min":61,"x_max":576,"o":"m 318 -16 q 136 61 212 -16 q 79 144 98 99 q 61 243 61 189 l 61 986 l 211 986 l 211 364 q 219 322 211 342 q 241 288 227 302 q 275 266 256 274 q 318 257 295 257 l 576 257 l 576 -16 l 318 -16 z "},"M":{"ha":1244,"x_min":61,"x_max":1183,"o":"m 1034 -16 l 1034 607 q 1025 648 1034 629 q 1002 683 1017 668 q 968 706 987 697 q 926 714 948 714 l 804 714 q 762 706 781 714 q 728 684 742 698 q 705 650 713 669 q 697 607 697 630 l 697 -16 l 547 -16 l 547 607 q 539 650 547 630 q 516 684 530 669 q 482 706 502 698 q 440 714 463 714 l 318 714 q 277 706 296 714 q 242 683 257 697 q 219 648 228 668 q 211 607 211 629 l 211 -16 l 61 -16 l 61 729 q 138 909 61 836 q 221 967 176 948 q 318 986 265 986 l 392 986 q 463 976 429 986 q 528 948 498 966 q 582 903 557 930 q 623 844 606 877 q 663 903 639 877 q 716 948 686 930 q 781 976 746 966 q 852 986 815 986 l 926 986 q 1107 909 1030 986 q 1183 729 1183 836 l 1183 -16 l 1034 -16 z "},"N":{"ha":758,"x_min":61,"x_max":697,"o":"m 547 -16 l 547 607 q 539 650 547 630 q 516 684 530 669 q 482 706 502 698 q 440 714 463 714 l 318 714 q 277 706 296 714 q 242 683 257 697 q 219 648 228 668 q 211 607 211 629 l 211 -16 l 61 -16 l 61 729 q 79 827 61 783 q 136 909 98 872 q 318 986 212 986 l 440 986 q 539 968 494 986 q 623 911 584 949 q 679 828 661 872 q 697 729 697 784 l 697 -16 l 547 -16 z "},"O":{"ha":758,"x_min":61,"x_max":697,"o":"m 547 607 q 539 648 547 629 q 516 683 530 668 q 481 706 501 697 q 440 714 462 714 l 318 714 q 277 706 296 714 q 242 683 257 697 q 219 648 228 668 q 211 607 211 629 l 211 364 q 219 323 211 342 q 242 289 228 303 q 277 266 257 274 q 318 257 296 257 l 440 257 q 482 266 463 257 q 516 288 502 274 q 539 322 530 302 q 547 364 547 342 l 547 607 m 697 243 q 679 144 697 189 q 623 61 661 99 q 440 -16 546 -16 l 318 -16 q 136 61 212 -16 q 79 144 98 99 q 61 243 61 190 l 61 729 q 79 827 61 783 q 136 909 98 872 q 318 986 212 986 l 440 986 q 621 909 545 986 q 697 729 697 836 l 697 243 z "},"P":{"ha":758,"x_min":61,"x_max":697,"o":"m 486 637 q 480 667 486 653 q 464 691 474 681 q 439 708 453 702 q 410 714 425 714 l 211 714 l 211 561 l 410 561 q 439 567 425 561 q 464 584 453 574 q 480 609 474 595 q 486 637 486 623 m 697 668 q 678 571 697 615 q 621 488 659 526 q 440 411 545 411 l 211 411 l 211 -16 l 61 -16 l 61 986 l 440 986 q 621 909 545 986 q 697 729 697 836 l 697 668 z "},"Q":{"ha":758,"x_min":61,"x_max":697,"o":"m 547 607 q 539 648 547 629 q 516 683 530 668 q 481 706 501 697 q 440 714 462 714 l 318 714 q 277 706 296 714 q 242 683 257 697 q 219 648 228 668 q 211 607 211 629 l 211 364 q 219 323 211 342 q 242 289 228 303 q 277 266 257 274 q 318 257 296 257 l 440 257 q 482 266 463 257 q 516 288 502 274 q 539 322 530 302 q 547 364 547 342 l 547 607 m 561 -379 q 463 -361 508 -379 q 379 -304 418 -343 q 322 -221 340 -266 q 304 -122 304 -176 l 304 -16 q 214 6 255 -12 q 138 61 173 25 q 61 243 61 136 l 61 729 q 138 909 61 836 q 221 967 176 948 q 318 986 265 986 l 440 986 q 621 909 545 986 q 697 729 697 836 l 697 243 q 679 144 697 189 q 623 61 661 99 q 545 6 587 25 q 454 -16 503 -12 q 466 -52 457 -35 q 489 -81 475 -68 q 522 -100 503 -93 q 561 -107 540 -107 l 697 -107 l 697 -379 l 561 -379 z "},"R":{"ha":758,"x_min":61,"x_max":697,"o":"m 486 637 q 480 667 486 653 q 464 691 474 681 q 439 708 453 702 q 410 714 425 714 l 211 714 l 211 561 l 410 561 q 439 567 425 561 q 464 584 453 574 q 480 609 474 595 q 486 637 486 623 m 547 -16 l 547 256 q 510 364 547 319 q 410 411 471 411 l 211 411 l 211 -16 l 61 -16 l 61 986 l 440 986 q 621 909 545 986 q 697 729 697 836 q 687 652 697 689 q 659 584 677 616 q 614 528 641 553 q 553 486 587 503 q 660 394 623 454 q 697 256 697 335 l 697 -16 l 547 -16 z "},"S":{"ha":758,"x_min":61,"x_max":697,"o":"m 697 243 q 621 62 697 137 q 440 -16 544 -16 l 61 -16 l 61 257 l 410 257 q 439 263 425 257 q 464 280 453 269 q 480 305 474 291 q 486 335 486 319 q 480 364 486 350 q 464 388 474 378 q 439 405 453 399 q 410 411 425 411 l 318 411 q 221 430 265 411 q 138 488 176 449 q 80 571 99 526 q 61 668 61 615 l 61 729 q 138 909 61 836 q 221 967 176 948 q 318 986 265 986 l 697 986 l 697 714 l 349 714 q 319 708 333 714 q 295 691 305 702 q 278 667 284 681 q 272 637 272 653 q 278 609 272 623 q 295 584 284 595 q 319 567 305 574 q 349 561 333 561 l 440 561 q 621 485 545 561 q 697 304 697 408 l 697 243 z "},"T":{"ha":697,"x_min":31,"x_max":667,"o":"m 424 714 l 424 -16 l 273 -16 l 273 714 l 31 714 l 31 986 l 667 986 l 667 714 l 424 714 z "},"U":{"ha":758,"x_min":61,"x_max":697,"o":"m 697 243 q 679 144 697 189 q 623 61 661 99 q 440 -16 546 -16 l 318 -16 q 136 61 212 -16 q 79 144 98 99 q 61 243 61 190 l 61 986 l 211 986 l 211 364 q 219 323 211 342 q 242 289 228 303 q 277 266 257 274 q 318 257 296 257 l 440 257 q 482 266 463 257 q 516 288 502 274 q 539 322 530 302 q 547 364 547 342 l 547 986 l 697 986 l 697 243 z "},"V":{"ha":758,"x_min":61,"x_max":697,"o":"m 697 243 q 679 144 697 189 q 623 61 661 99 q 440 -16 546 -16 l 61 -16 l 61 986 l 211 986 l 211 257 l 440 257 q 482 266 463 257 q 516 288 502 274 q 539 322 530 302 q 547 364 547 342 l 547 986 l 697 986 l 697 243 z "},"W":{"ha":1244,"x_min":61,"x_max":1183,"o":"m 1183 243 q 1107 62 1183 137 q 926 -16 1029 -16 l 852 -16 q 781 -6 815 -16 q 716 22 746 4 q 663 67 686 41 q 623 126 639 94 q 582 67 606 94 q 528 22 557 41 q 463 -6 498 4 q 392 -16 429 -16 l 318 -16 q 221 4 265 -16 q 138 62 176 24 q 61 243 61 137 l 61 986 l 211 986 l 211 364 q 219 323 211 342 q 242 289 228 303 q 277 266 257 274 q 318 257 296 257 l 440 257 q 482 266 463 257 q 516 288 502 274 q 539 322 530 302 q 547 364 547 342 l 547 986 l 697 986 l 697 364 q 705 322 697 342 q 728 288 713 302 q 762 266 742 274 q 804 257 781 257 l 926 257 q 968 266 948 257 q 1002 289 987 274 q 1025 323 1017 303 q 1034 364 1034 342 l 1034 986 l 1183 986 l 1183 243 z "},"X":{"ha":758,"x_min":61,"x_max":697,"o":"m 610 -16 q 530 -3 568 -16 q 460 33 493 10 q 379 129 407 72 q 346 77 366 100 q 298 33 326 53 q 228 -3 265 10 q 149 -16 191 -16 l 61 -16 l 61 257 l 197 257 q 239 266 219 257 q 273 289 258 274 q 296 323 288 303 q 304 364 304 342 l 304 607 q 296 648 304 629 q 273 683 288 668 q 239 706 258 697 q 197 714 219 714 l 61 714 l 61 986 l 149 986 q 228 974 191 986 q 298 937 266 962 q 345 895 325 919 q 379 843 366 871 q 413 895 393 871 q 460 937 433 919 q 530 974 492 962 q 610 986 568 986 l 697 986 l 697 714 l 561 714 q 520 706 539 714 q 486 683 500 697 q 463 648 471 668 q 454 607 454 629 l 454 364 q 463 323 454 342 q 486 289 471 303 q 520 266 500 274 q 561 257 539 257 l 697 257 l 697 -16 l 610 -16 z "},"Y":{"ha":758,"x_min":61,"x_max":697,"o":"m 697 534 q 679 435 697 480 q 623 353 661 391 q 545 298 587 317 q 454 277 503 279 l 454 -16 l 304 -16 l 304 277 q 214 298 255 279 q 138 353 173 317 q 61 534 61 427 l 61 986 l 211 986 l 211 656 q 219 614 211 634 q 242 580 228 595 q 277 557 257 566 q 318 549 296 549 l 440 549 q 482 557 463 549 q 516 580 502 566 q 539 614 530 594 q 547 656 547 633 l 547 986 l 697 986 l 697 534 z "},"Z":{"ha":758,"x_min":61,"x_max":697,"o":"m 61 -16 l 61 249 l 468 714 l 61 714 l 61 986 l 697 986 l 697 724 l 289 257 l 697 257 l 697 -16 l 61 -16 z "},"[":{"ha":454,"x_min":61,"x_max":334,"o":"m 61 -136 l 61 1108 l 334 1108 l 334 836 l 211 836 l 211 136 l 334 136 l 334 -136 l 61 -136 z "},"\\":{"ha":619,"x_min":26,"x_max":593,"o":"m 452 -123 l 26 1044 l 168 1096 l 593 -74 l 452 -123 z "},"]":{"ha":454,"x_min":121,"x_max":393,"o":"m 121 -136 l 121 136 l 243 136 l 243 836 l 121 836 l 121 1108 l 393 1108 l 393 -136 l 121 -136 z "},"^":{"ha":644,"x_min":56,"x_max":587,"o":"m 472 469 l 322 806 l 171 469 l 56 521 l 264 986 l 380 986 l 587 521 l 472 469 z "},"_":{"ha":576,"x_min":0,"x_max":576,"o":"m 0 -16 l 0 136 l 576 136 l 576 -16 l 0 -16 z "},"`":{"ha":321,"x_min":52,"x_max":267,"o":"m 164 787 l 52 986 l 182 986 l 267 787 l 164 787 z "},"a":{"ha":758,"x_min":61,"x_max":697,"o":"m 547 486 q 539 529 547 509 q 516 562 530 548 q 482 585 502 576 q 440 593 463 593 l 318 593 q 277 584 296 593 q 242 561 257 576 q 219 527 228 547 q 211 486 211 508 l 211 364 q 219 323 211 342 q 242 289 228 303 q 277 266 257 274 q 318 257 296 257 l 440 257 q 481 266 462 257 q 516 289 501 274 q 539 323 530 303 q 547 364 547 342 l 547 486 m 547 -16 l 547 22 q 536 15 542 18 q 525 7 530 11 q 485 -9 506 -3 q 440 -16 463 -16 l 318 -16 q 221 4 265 -16 q 138 62 176 24 q 61 243 61 137 l 61 607 q 138 789 61 712 q 221 846 176 827 q 318 865 265 865 l 440 865 q 623 790 545 865 q 679 706 661 751 q 697 607 697 661 l 697 -16 l 547 -16 z "},"b":{"ha":758,"x_min":61,"x_max":697,"o":"m 547 486 q 539 527 547 508 q 516 561 530 547 q 481 584 501 576 q 440 593 462 593 l 318 593 q 277 584 296 593 q 242 561 257 576 q 219 527 228 547 q 211 486 211 508 l 211 364 q 219 322 211 342 q 241 288 227 302 q 275 266 256 274 q 318 257 295 257 l 440 257 q 481 266 462 257 q 516 289 501 274 q 539 323 530 303 q 547 364 547 342 l 547 486 m 697 243 q 621 62 697 137 q 440 -16 544 -16 l 318 -16 q 136 61 212 -16 q 79 144 98 99 q 61 243 61 189 l 61 1047 l 211 1047 l 211 828 q 222 836 216 832 q 233 843 227 840 q 274 860 252 854 q 318 865 295 865 l 440 865 q 621 789 545 865 q 697 607 697 712 l 697 243 z "},"c":{"ha":758,"x_min":61,"x_max":697,"o":"m 318 -16 q 221 4 265 -16 q 138 62 176 24 q 61 243 61 137 l 61 607 q 138 789 61 712 q 221 846 176 827 q 318 865 265 865 l 697 865 l 697 593 l 318 593 q 277 584 296 593 q 242 561 257 576 q 219 527 228 547 q 211 486 211 508 l 211 364 q 219 323 211 342 q 242 289 228 303 q 277 266 257 274 q 318 257 296 257 l 697 257 l 697 -16 l 318 -16 z "},"d":{"ha":758,"x_min":61,"x_max":697,"o":"m 547 486 q 539 527 547 508 q 516 561 530 547 q 481 584 501 576 q 440 593 462 593 l 318 593 q 277 584 296 593 q 242 561 257 576 q 219 527 228 547 q 211 486 211 508 l 211 364 q 219 323 211 342 q 242 289 228 303 q 277 266 257 274 q 318 257 296 257 l 440 257 q 482 266 463 257 q 516 288 502 274 q 539 322 530 302 q 547 364 547 342 l 547 486 m 697 243 q 679 144 697 189 q 623 61 661 99 q 440 -16 546 -16 l 318 -16 q 221 4 265 -16 q 138 62 176 24 q 61 243 61 137 l 61 607 q 138 789 61 712 q 221 846 176 827 q 318 865 265 865 l 440 865 q 485 860 463 865 q 525 843 506 854 q 536 836 530 840 q 547 829 542 833 l 547 1047 l 697 1047 l 697 243 z "},"e":{"ha":758,"x_min":61,"x_max":697,"o":"m 318 -16 q 221 4 265 -16 q 138 62 176 24 q 61 243 61 137 l 61 607 q 138 789 61 712 q 221 846 176 827 q 318 865 265 865 l 697 865 l 697 593 l 318 593 q 280 586 298 593 q 248 566 262 578 q 223 536 233 553 q 211 500 214 519 l 576 500 l 576 350 l 211 350 q 223 313 214 330 q 248 284 233 296 q 280 264 262 271 q 318 257 298 257 l 697 257 l 697 -16 l 318 -16 z "},"f":{"ha":607,"x_min":61,"x_max":576,"o":"m 318 775 q 275 767 295 775 q 241 745 256 759 q 219 711 227 730 q 211 668 211 691 l 211 561 l 454 561 l 454 411 l 211 411 l 211 -16 l 61 -16 l 61 790 q 79 889 61 844 q 136 972 98 934 q 220 1029 175 1011 q 318 1047 265 1047 l 576 1047 l 576 775 l 318 775 z "},"g":{"ha":758,"x_min":61,"x_max":697,"o":"m 547 486 q 539 527 547 508 q 516 561 530 547 q 481 584 501 576 q 440 593 462 593 l 318 593 q 277 584 296 593 q 242 561 257 576 q 219 527 228 547 q 211 486 211 508 l 211 364 q 219 323 211 342 q 242 289 228 303 q 277 266 257 274 q 318 257 296 257 l 440 257 q 482 266 463 257 q 516 288 502 274 q 539 322 530 302 q 547 364 547 342 l 547 486 m 697 -122 q 679 -221 697 -176 q 623 -304 661 -266 q 539 -361 584 -343 q 440 -379 494 -379 l 304 -379 l 304 -107 l 440 -107 q 482 -99 463 -107 q 516 -77 502 -91 q 539 -43 530 -62 q 547 0 547 -23 l 547 22 q 536 15 542 18 q 525 7 530 11 q 485 -9 506 -3 q 440 -16 463 -16 l 318 -16 q 221 4 265 -16 q 138 62 176 24 q 61 243 61 137 l 61 607 q 138 789 61 712 q 221 846 176 827 q 318 865 265 865 l 440 865 q 623 790 545 865 q 679 706 661 751 q 697 607 697 661 l 697 -122 z "},"h":{"ha":758,"x_min":61,"x_max":697,"o":"m 547 -16 l 547 486 q 539 527 547 508 q 516 561 530 547 q 481 584 501 576 q 440 593 462 593 l 318 593 q 277 584 296 593 q 242 561 257 576 q 219 527 228 547 q 211 486 211 508 l 211 -16 l 61 -16 l 61 1047 l 211 1047 l 211 831 q 222 838 216 834 q 233 844 227 841 l 233 843 q 274 860 252 854 q 318 865 295 865 l 440 865 q 621 789 545 865 q 697 607 697 712 l 697 -16 l 547 -16 z "},"i":{"ha":272,"x_min":61,"x_max":211,"o":"m 61 -16 l 61 865 l 211 865 l 211 -16 l 61 -16 z "},"j":{"ha":515,"x_min":61,"x_max":454,"o":"m 454 -122 q 436 -221 454 -176 q 379 -304 418 -266 q 295 -361 340 -343 q 197 -379 250 -379 l 61 -379 l 61 -107 l 197 -107 q 239 -99 220 -107 q 273 -77 259 -91 q 296 -43 288 -62 q 304 0 304 -23 l 304 593 l 61 593 l 61 865 l 454 865 l 454 -122 z "},"k":{"ha":758,"x_min":61,"x_max":697,"o":"m 547 -16 l 547 182 q 539 224 547 205 q 516 258 530 244 q 482 281 502 273 q 440 289 463 289 l 211 289 l 211 -16 l 61 -16 l 61 1047 l 211 1047 l 211 561 l 440 561 q 482 569 463 561 q 516 591 502 577 q 539 625 530 606 q 547 668 547 645 l 547 865 l 697 865 l 697 644 q 689 578 697 610 q 666 518 681 547 q 628 466 650 490 q 578 425 606 442 q 628 384 606 408 q 666 332 650 360 q 689 272 681 304 q 697 207 697 240 l 697 -16 l 547 -16 z "},"l":{"ha":364,"x_min":61,"x_max":334,"o":"m 318 -16 q 136 61 212 -16 q 79 144 98 99 q 61 243 61 189 l 61 1047 l 211 1047 l 211 364 q 220 322 211 342 q 246 288 230 302 q 285 266 262 274 q 334 257 307 257 l 334 0 l 318 -16 z "},"m":{"ha":1244,"x_min":61,"x_max":1183,"o":"m 1034 -16 l 1034 486 q 1025 527 1034 508 q 1002 561 1017 547 q 968 584 987 576 q 926 593 948 593 l 804 593 q 762 585 781 593 q 728 562 742 576 q 705 529 713 548 q 697 486 697 509 l 697 -16 l 547 -16 l 547 486 q 539 529 547 509 q 516 562 530 548 q 482 585 502 576 q 440 593 463 593 l 318 593 q 277 584 296 593 q 242 561 257 576 q 219 527 228 547 q 211 486 211 508 l 211 -16 l 61 -16 l 61 607 q 138 789 61 712 q 221 846 176 827 q 318 865 265 865 l 392 865 q 463 856 429 865 q 528 827 498 846 q 582 783 557 809 q 623 724 606 756 q 663 783 639 756 q 716 827 686 809 q 781 856 746 846 q 852 865 815 865 l 926 865 q 1107 789 1030 865 q 1183 607 1183 712 l 1183 -16 l 1034 -16 z "},"n":{"ha":758,"x_min":61,"x_max":697,"o":"m 547 -16 l 547 486 q 539 529 547 509 q 516 562 530 548 q 482 585 502 576 q 440 593 463 593 l 318 593 q 277 584 296 593 q 242 561 257 576 q 219 527 228 547 q 211 486 211 508 l 211 -16 l 61 -16 l 61 607 q 79 705 61 660 q 136 789 98 750 q 318 865 212 865 l 440 865 q 623 790 545 865 q 679 706 661 751 q 697 607 697 661 l 697 -16 l 547 -16 z "},"o":{"ha":758,"x_min":61,"x_max":697,"o":"m 547 486 q 539 527 547 508 q 516 561 530 547 q 481 584 501 576 q 440 593 462 593 l 318 593 q 277 584 296 593 q 242 561 257 576 q 219 527 228 547 q 211 486 211 508 l 211 364 q 219 323 211 342 q 242 289 228 303 q 277 266 257 274 q 318 257 296 257 l 440 257 q 482 266 463 257 q 516 288 502 274 q 539 322 530 302 q 547 364 547 342 l 547 486 m 697 243 q 679 144 697 189 q 623 61 661 99 q 440 -16 546 -16 l 318 -16 q 136 61 212 -16 q 79 144 98 99 q 61 243 61 190 l 61 607 q 79 705 61 660 q 136 789 98 750 q 318 865 212 865 l 440 865 q 621 789 545 865 q 697 607 697 712 l 697 243 z "},"p":{"ha":758,"x_min":61,"x_max":697,"o":"m 547 486 q 539 527 547 508 q 516 561 530 547 q 481 584 501 576 q 440 593 462 593 l 318 593 q 275 585 295 593 q 241 562 256 576 q 219 529 227 548 q 211 486 211 509 l 211 364 q 219 323 211 342 q 242 289 228 303 q 277 266 257 274 q 318 257 296 257 l 440 257 q 481 266 462 257 q 516 289 501 274 q 539 323 530 303 q 547 364 547 342 l 547 486 m 697 243 q 621 62 697 137 q 440 -16 544 -16 l 318 -16 q 274 -9 295 -16 q 233 7 252 -3 q 211 22 222 13 l 211 -258 l 61 -258 l 61 607 q 79 706 61 661 q 136 790 98 751 q 318 865 212 865 l 440 865 q 621 789 545 865 q 697 607 697 712 l 697 243 z "},"q":{"ha":758,"x_min":61,"x_max":697,"o":"m 547 486 q 539 529 547 509 q 516 562 530 548 q 482 585 502 576 q 440 593 463 593 l 318 593 q 277 584 296 593 q 242 561 257 576 q 219 527 228 547 q 211 486 211 508 l 211 364 q 219 323 211 342 q 242 289 228 303 q 277 266 257 274 q 318 257 296 257 l 440 257 q 481 266 462 257 q 516 289 501 274 q 539 323 530 303 q 547 364 547 342 l 547 486 m 547 -258 l 547 22 q 536 15 542 18 q 525 7 530 11 q 485 -9 506 -3 q 440 -16 463 -16 l 318 -16 q 221 4 265 -16 q 138 62 176 24 q 61 243 61 137 l 61 607 q 138 789 61 712 q 221 846 176 827 q 318 865 265 865 l 440 865 q 623 790 545 865 q 679 706 661 751 q 697 607 697 661 l 697 -258 l 547 -258 z "},"r":{"ha":607,"x_min":61,"x_max":576,"o":"m 318 593 q 277 584 296 593 q 242 561 257 576 q 219 527 228 547 q 211 486 211 508 l 211 -16 l 61 -16 l 61 865 l 211 865 l 211 828 q 222 836 216 832 q 233 843 227 840 q 274 860 252 854 q 318 865 295 865 l 576 865 l 576 593 l 318 593 z "},"s":{"ha":758,"x_min":61,"x_max":697,"o":"m 697 243 q 621 62 697 137 q 440 -16 544 -16 l 61 -16 l 61 257 l 440 257 q 473 271 459 257 q 486 304 486 285 q 473 336 486 323 q 440 350 459 350 l 318 350 q 221 369 265 350 q 138 427 176 388 q 61 607 61 503 q 138 789 61 712 q 221 846 176 827 q 318 865 265 865 l 697 865 l 697 593 l 318 593 q 286 579 299 593 q 272 547 272 566 q 286 514 272 528 q 318 500 299 500 l 440 500 q 621 424 545 500 q 697 243 697 349 z "},"t":{"ha":607,"x_min":61,"x_max":576,"o":"m 318 -16 q 136 61 212 -16 q 79 144 98 99 q 61 243 61 189 l 61 986 l 211 986 l 211 865 l 454 865 l 454 714 l 211 714 l 211 364 q 219 322 211 342 q 241 288 227 302 q 275 266 256 274 q 318 257 295 257 l 576 257 l 576 -16 l 318 -16 z "},"u":{"ha":758,"x_min":61,"x_max":697,"o":"m 697 243 q 679 144 697 189 q 623 61 661 99 q 440 -16 546 -16 l 318 -16 q 136 61 212 -16 q 79 144 98 99 q 61 243 61 190 l 61 865 l 211 865 l 211 364 q 219 323 211 342 q 242 289 228 303 q 277 266 257 274 q 318 257 296 257 l 440 257 q 482 266 463 257 q 516 288 502 274 q 539 322 530 302 q 547 364 547 342 l 547 865 l 697 865 l 697 243 z "},"v":{"ha":758,"x_min":61,"x_max":697,"o":"m 697 243 q 679 144 697 189 q 623 61 661 99 q 440 -16 546 -16 l 61 -16 l 61 865 l 211 865 l 211 257 l 440 257 q 482 266 463 257 q 516 288 502 274 q 539 322 530 302 q 547 364 547 342 l 547 865 l 697 865 l 697 243 z "},"w":{"ha":1244,"x_min":61,"x_max":1183,"o":"m 1183 243 q 1107 62 1183 137 q 926 -16 1029 -16 l 852 -16 q 781 -6 815 -16 q 716 22 746 4 q 663 67 686 41 q 623 126 639 94 q 582 67 606 94 q 528 22 557 41 q 463 -6 498 4 q 392 -16 429 -16 l 318 -16 q 221 4 265 -16 q 138 62 176 24 q 61 243 61 137 l 61 865 l 211 865 l 211 364 q 219 323 211 342 q 242 289 228 303 q 277 266 257 274 q 318 257 296 257 l 440 257 q 482 266 463 257 q 516 288 502 274 q 539 322 530 302 q 547 364 547 342 l 547 865 l 697 865 l 697 364 q 705 322 697 342 q 728 288 713 302 q 762 266 742 274 q 804 257 781 257 l 926 257 q 968 266 948 257 q 1002 289 987 274 q 1025 323 1017 303 q 1034 364 1034 342 l 1034 865 l 1183 865 l 1183 243 z "},"x":{"ha":758,"x_min":61,"x_max":697,"o":"m 610 -16 q 530 -3 568 -16 q 460 33 493 10 q 379 129 407 72 q 346 77 366 100 q 298 33 326 53 q 228 -3 265 10 q 149 -16 191 -16 l 61 -16 l 61 257 l 197 257 q 239 266 219 257 q 273 289 258 274 q 296 323 288 303 q 304 364 304 342 l 304 486 q 296 527 304 508 q 273 561 288 547 q 239 584 258 576 q 197 593 219 593 l 61 593 l 61 865 l 149 865 q 228 853 191 865 q 298 815 266 840 q 345 774 325 798 q 379 722 366 751 q 413 774 393 751 q 460 815 433 798 q 530 853 492 840 q 610 865 568 865 l 697 865 l 697 593 l 561 593 q 520 584 539 593 q 486 561 500 576 q 463 527 471 547 q 454 486 454 508 l 454 364 q 463 323 454 342 q 486 289 471 303 q 520 266 500 274 q 561 257 539 257 l 697 257 l 697 -16 l 610 -16 z "},"y":{"ha":758,"x_min":61,"x_max":697,"o":"m 697 -122 q 679 -221 697 -176 q 623 -304 661 -266 q 539 -361 584 -343 q 440 -379 494 -379 l 304 -379 l 304 -107 l 440 -107 q 482 -99 463 -107 q 516 -77 502 -91 q 539 -43 530 -62 q 547 0 547 -23 l 547 22 q 536 15 542 18 q 525 7 530 11 q 485 -9 506 -3 q 440 -16 463 -16 l 318 -16 q 221 4 265 -16 q 138 62 176 24 q 61 243 61 137 l 61 865 l 211 865 l 211 364 q 219 323 211 342 q 242 289 228 303 q 277 266 257 274 q 318 257 296 257 l 440 257 q 482 266 463 257 q 516 288 502 274 q 539 322 530 302 q 547 364 547 342 l 547 865 l 697 865 l 697 -122 z "},"z":{"ha":758,"x_min":61,"x_max":697,"o":"m 61 -16 l 61 249 l 427 593 l 61 593 l 61 865 l 697 865 l 697 602 l 330 257 l 697 257 l 697 -16 l 61 -16 z "},"{":{"ha":576,"x_min":61,"x_max":454,"o":"m 440 -136 q 258 -60 335 -136 q 201 24 220 -21 q 182 121 182 68 l 182 411 l 61 411 l 61 561 l 182 561 l 182 850 q 201 948 182 903 q 258 1032 220 994 q 454 1108 335 1108 l 454 836 q 407 828 429 836 q 369 805 385 819 q 343 770 353 790 q 334 729 334 751 l 334 243 q 343 202 334 221 q 369 168 353 182 q 407 145 385 153 q 454 136 429 136 l 454 -122 l 440 -136 z "},"|":{"ha":272,"x_min":61,"x_max":211,"o":"m 61 -136 l 61 1108 l 211 1108 l 211 -136 l 61 -136 z "},"}":{"ha":576,"x_min":121,"x_max":515,"o":"m 393 411 l 393 121 q 317 -60 393 17 q 121 -136 242 -136 l 121 136 q 169 145 146 136 q 208 168 191 153 q 233 202 224 182 q 243 243 243 221 l 243 729 q 233 770 243 751 q 208 805 224 790 q 169 828 191 819 q 121 836 146 836 l 121 1108 q 317 1032 241 1108 q 393 850 393 956 l 393 561 l 515 561 l 515 411 l 393 411 z "},"~":{"ha":661,"x_min":61,"x_max":600,"o":"m 593 412 q 415 363 513 363 q 325 387 382 363 q 278 405 298 399 q 245 411 259 411 q 154 396 199 411 q 61 351 108 382 l 61 481 q 245 538 149 538 q 336 511 279 538 q 382 495 363 500 q 415 489 401 489 q 600 549 507 489 l 600 425 l 593 412 z "},"€":{"ha":758,"x_min":61,"x_max":697,"o":"m 318 -16 q 221 4 265 -16 q 138 62 176 24 q 61 243 61 137 l 61 729 q 138 909 61 836 q 221 967 176 948 q 318 986 265 986 l 697 986 l 697 714 l 318 714 q 280 707 298 714 q 248 687 262 700 q 223 658 233 675 q 211 623 214 642 l 576 623 l 576 509 l 211 509 l 211 464 l 576 464 l 576 350 l 211 350 q 223 313 214 330 q 248 284 233 296 q 280 264 262 271 q 318 257 298 257 l 697 257 l 697 -16 l 318 -16 z "},"‚":{"ha":321,"x_min":61,"x_max":260,"o":"m 110 -136 l 110 -58 l 182 -58 l 182 -16 l 61 -16 l 61 184 l 260 184 l 260 -136 l 110 -136 z "},"ƒ":{"ha":728,"x_min":-183,"x_max":699,"o":"m 675 775 l 419 775 q 340 744 371 775 q 301 663 309 713 q 297 633 300 657 q 292 561 295 608 l 534 561 l 522 411 l 279 411 l 243 -1 q 238 -51 241 -21 q 232 -122 236 -81 q 203 -224 226 -178 q 140 -307 181 -271 q 56 -361 102 -344 q -46 -379 9 -379 l -183 -379 l -161 -107 l -25 -107 q 18 -99 -2 -107 q 54 -76 39 -91 q 80 -42 70 -62 q 92 1 90 -22 l 161 791 q 252 974 172 898 q 440 1047 332 1047 l 699 1047 l 675 775 z "},"„":{"ha":587,"x_min":61,"x_max":528,"o":"m 110 -136 l 110 -58 l 182 -58 l 182 -16 l 61 -16 l 61 184 l 260 184 l 260 -136 l 110 -136 m 376 -136 l 376 -58 l 450 -58 l 450 -16 l 328 -16 l 328 184 l 528 184 l 528 -136 l 376 -136 z "},"…":{"ha":904,"x_min":61,"x_max":843,"o":"m 353 -16 l 353 184 l 551 184 l 551 -16 l 353 -16 m 61 -16 l 61 184 l 260 184 l 260 -16 l 61 -16 m 644 -16 l 644 184 l 843 184 l 843 -16 l 644 -16 z "},"†":{"ha":636,"x_min":61,"x_max":576,"o":"m 393 593 l 393 -258 l 243 -258 l 243 593 l 61 593 l 61 743 l 243 743 l 243 986 l 393 986 l 393 743 l 576 743 l 576 593 l 393 593 z "},"‡":{"ha":636,"x_min":61,"x_max":576,"o":"m 393 228 l 393 -258 l 243 -258 l 243 228 l 61 228 l 61 379 l 243 379 l 243 593 l 61 593 l 61 743 l 243 743 l 243 986 l 393 986 l 393 743 l 576 743 l 576 593 l 393 593 l 393 379 l 576 379 l 576 228 l 393 228 z "},"ˆ":{"ha":441,"x_min":52,"x_max":392,"o":"m 286 787 l 221 879 l 155 787 l 52 787 l 164 986 l 278 986 l 392 787 l 286 787 z "},"‰":{"ha":1695,"x_min":61,"x_max":1633,"o":"m 1512 364 q 1506 394 1512 380 q 1490 418 1500 408 q 1466 435 1480 429 q 1436 441 1452 441 l 1346 441 q 1316 435 1331 441 q 1291 418 1302 429 q 1274 394 1280 408 q 1268 364 1268 380 l 1268 273 q 1290 219 1268 240 q 1346 197 1312 197 l 1436 197 q 1466 203 1452 197 q 1490 220 1480 210 q 1506 244 1500 230 q 1512 273 1512 258 l 1512 364 m 425 699 q 419 728 425 714 q 402 752 413 742 q 378 769 392 763 q 349 775 364 775 l 257 775 q 228 769 241 775 q 203 752 214 763 q 186 728 193 742 q 180 699 180 714 l 180 607 q 186 578 180 592 q 203 554 193 564 q 228 537 214 543 q 257 530 241 530 l 349 530 q 379 536 366 530 q 404 552 393 542 q 419 577 414 563 q 425 607 425 591 l 425 699 m 1149 364 q 1142 394 1149 380 q 1125 418 1136 408 q 1101 435 1115 429 q 1072 441 1087 441 l 981 441 q 951 435 965 441 q 927 418 937 429 q 910 394 916 408 q 904 364 904 380 l 904 273 q 910 244 904 258 q 927 220 916 230 q 951 203 937 210 q 981 197 965 197 l 1072 197 q 1102 203 1088 197 q 1127 219 1116 209 q 1143 243 1137 229 q 1149 273 1149 257 l 1149 364 m 589 -16 l 589 986 l 741 986 l 741 -16 l 589 -16 m 546 517 q 488 376 546 435 q 349 319 431 319 l 257 319 q 119 378 178 319 q 61 517 61 436 l 61 790 q 119 928 61 869 q 257 986 178 986 l 349 986 q 488 928 429 986 q 546 790 546 869 l 546 517 m 1633 182 q 1575 43 1633 101 q 1436 -16 1516 -16 l 1394 -16 q 1338 -8 1365 -16 q 1286 14 1310 -1 q 1242 47 1262 28 q 1210 92 1223 67 q 1175 47 1196 67 q 1131 14 1155 28 q 1079 -8 1106 -1 q 1023 -16 1052 -16 l 981 -16 q 842 43 900 -16 q 783 182 783 102 l 783 456 q 798 531 783 496 q 842 595 812 565 q 981 653 900 653 l 1023 653 q 1079 645 1052 653 q 1131 623 1106 637 q 1175 589 1155 609 q 1210 545 1196 569 q 1242 589 1223 569 q 1286 623 1262 609 q 1338 645 1310 637 q 1394 653 1365 653 l 1436 653 q 1575 595 1516 653 q 1633 456 1633 536 l 1633 182 z "},"Š":{"ha":758,"x_min":61,"x_max":697,"o":"m 436 1031 l 322 1031 l 208 1229 l 314 1229 l 379 1139 l 444 1229 l 549 1229 l 436 1031 m 697 243 q 621 62 697 137 q 440 -16 544 -16 l 61 -16 l 61 257 l 410 257 q 439 263 425 257 q 464 280 453 269 q 480 305 474 291 q 486 335 486 319 q 480 364 486 350 q 464 388 474 378 q 439 405 453 399 q 410 411 425 411 l 318 411 q 221 430 265 411 q 138 488 176 449 q 80 571 99 526 q 61 668 61 615 l 61 729 q 138 909 61 836 q 221 967 176 948 q 318 986 265 986 l 697 986 l 697 714 l 349 714 q 319 708 333 714 q 295 691 305 702 q 278 667 284 681 q 272 637 272 653 q 278 609 272 623 q 295 584 284 595 q 319 567 305 574 q 349 561 333 561 l 440 561 q 621 485 545 561 q 697 304 697 408 l 697 243 z "},"‹":{"ha":510,"x_min":61,"x_max":454,"o":"m 385 218 l 61 429 l 61 543 l 385 753 l 454 646 l 205 486 l 454 325 l 385 218 z "},"Œ":{"ha":1063,"x_min":61,"x_max":1002,"o":"m 547 607 q 539 648 547 629 q 516 683 530 668 q 481 706 501 697 q 440 714 462 714 l 318 714 q 277 706 296 714 q 242 683 257 697 q 219 648 228 668 q 211 607 211 629 l 211 364 q 219 323 211 342 q 242 289 228 303 q 277 266 257 274 q 318 257 296 257 l 440 257 q 482 266 463 257 q 516 288 502 274 q 539 322 530 302 q 547 364 547 342 l 547 607 m 852 -16 q 716 24 775 -16 q 627 132 658 64 q 587 71 611 98 q 532 24 562 43 q 466 -5 501 5 q 392 -16 431 -16 l 318 -16 q 136 61 212 -16 q 79 144 98 99 q 61 243 61 190 l 61 729 q 79 827 61 783 q 136 909 98 872 q 318 986 212 986 l 392 986 q 475 973 437 986 q 547 935 513 960 l 547 986 l 1002 986 l 1002 714 l 697 714 l 697 561 l 879 561 l 879 411 l 697 411 l 697 364 q 705 322 697 342 q 728 288 713 302 q 762 266 742 274 q 804 257 781 257 l 1002 257 l 1002 -16 l 852 -16 z "},"Ž":{"ha":758,"x_min":61,"x_max":697,"o":"m 436 1031 l 322 1031 l 208 1229 l 314 1229 l 379 1139 l 444 1229 l 549 1229 l 436 1031 m 61 -16 l 61 249 l 468 714 l 61 714 l 61 986 l 697 986 l 697 724 l 289 257 l 697 257 l 697 -16 l 61 -16 z "},"‘":{"ha":321,"x_min":61,"x_max":260,"o":"m 61 726 l 61 1047 l 211 1047 l 211 970 l 139 970 l 139 926 l 260 926 l 260 726 l 61 726 z "},"’":{"ha":321,"x_min":61,"x_max":260,"o":"m 110 726 l 110 804 l 182 804 l 182 848 l 61 848 l 61 1047 l 260 1047 l 260 726 l 110 726 z "},"“":{"ha":587,"x_min":61,"x_max":528,"o":"m 61 726 l 61 1047 l 211 1047 l 211 970 l 139 970 l 139 926 l 260 926 l 260 726 l 61 726 m 328 726 l 328 1047 l 479 1047 l 479 970 l 406 970 l 406 926 l 528 926 l 528 726 l 328 726 z "},"”":{"ha":587,"x_min":61,"x_max":528,"o":"m 110 726 l 110 804 l 182 804 l 182 848 l 61 848 l 61 1047 l 260 1047 l 260 726 l 110 726 m 376 726 l 376 804 l 450 804 l 450 848 l 328 848 l 328 1047 l 528 1047 l 528 726 l 376 726 z "},"•":{"ha":576,"x_min":92,"x_max":485,"o":"m 485 340 q 475 286 485 311 q 446 243 465 261 q 403 214 428 224 q 349 204 378 204 l 228 204 q 174 215 199 204 q 131 244 149 226 q 102 287 113 262 q 92 340 92 312 l 92 510 q 102 563 92 538 q 131 606 113 588 q 174 635 149 625 q 228 646 199 646 l 349 646 q 402 635 377 646 q 445 606 427 625 q 474 563 463 588 q 485 510 485 538 l 485 340 z "},"–":{"ha":515,"x_min":61,"x_max":454,"o":"m 61 363 l 61 489 l 454 489 l 454 363 l 61 363 z "},"—":{"ha":758,"x_min":61,"x_max":697,"o":"m 61 363 l 61 489 l 697 489 l 697 363 l 61 363 z "},"˜":{"ha":515,"x_min":61,"x_max":454,"o":"m 450 864 q 389 825 422 838 q 318 811 357 811 q 287 818 303 811 q 249 839 270 825 q 219 854 233 849 q 197 860 205 860 q 130 844 163 860 q 61 791 96 827 l 61 928 q 197 986 119 986 q 229 979 212 986 q 267 960 245 972 q 295 943 282 949 q 318 937 309 937 q 454 1006 384 937 l 454 875 l 450 864 z "},"™":{"ha":1390,"x_min":61,"x_max":1329,"o":"m 1210 350 l 1210 699 q 1203 728 1210 714 q 1186 752 1197 742 q 1162 769 1176 763 q 1132 775 1147 775 l 1042 775 q 986 754 1008 775 q 965 699 965 732 l 965 350 l 844 350 l 844 699 q 823 754 844 732 q 768 775 801 775 l 676 775 q 647 769 661 775 q 623 752 633 763 q 606 728 612 742 q 600 699 600 714 l 600 350 l 481 350 l 481 775 l 364 775 l 364 350 l 243 350 l 243 775 l 61 775 l 61 986 l 546 986 l 546 937 q 605 974 572 962 q 676 986 637 986 l 732 986 q 785 979 759 986 q 833 959 810 972 q 874 926 855 945 q 905 884 892 907 q 936 926 918 907 q 976 959 954 945 q 1024 979 998 972 q 1078 986 1050 986 l 1132 986 q 1271 928 1213 986 q 1329 790 1329 869 l 1329 350 l 1210 350 z "},"š":{"ha":758,"x_min":61,"x_max":697,"o":"m 436 908 l 322 908 l 208 1108 l 314 1108 l 379 1017 l 444 1108 l 549 1108 l 436 908 m 697 243 q 621 62 697 137 q 440 -16 544 -16 l 61 -16 l 61 257 l 440 257 q 473 271 459 257 q 486 304 486 285 q 473 336 486 323 q 440 350 459 350 l 318 350 q 221 369 265 350 q 138 427 176 388 q 61 607 61 503 q 138 789 61 712 q 221 846 176 827 q 318 865 265 865 l 697 865 l 697 593 l 318 593 q 286 579 299 593 q 272 547 272 566 q 286 514 272 528 q 318 500 299 500 l 440 500 q 621 424 545 500 q 697 243 697 349 z "},"›":{"ha":510,"x_min":54,"x_max":449,"o":"m 123 218 l 54 325 l 302 486 l 54 646 l 123 753 l 449 543 l 449 429 l 123 218 z "},"œ":{"ha":1122,"x_min":61,"x_max":1063,"o":"m 547 486 q 539 527 547 508 q 516 561 530 547 q 481 584 501 576 q 440 593 462 593 l 318 593 q 277 584 296 593 q 242 561 257 576 q 219 527 228 547 q 211 486 211 508 l 211 364 q 219 323 211 342 q 242 289 228 303 q 277 266 257 274 q 318 257 296 257 l 440 257 q 482 266 463 257 q 516 288 502 274 q 539 322 530 302 q 547 364 547 342 l 547 486 m 852 -16 q 774 -3 811 -16 q 703 33 736 10 q 621 127 648 71 q 581 68 605 95 q 528 23 557 42 q 463 -5 498 5 q 392 -16 429 -16 l 318 -16 q 136 61 212 -16 q 79 144 98 99 q 61 243 61 190 l 61 607 q 79 705 61 660 q 136 789 98 750 q 318 865 212 865 l 392 865 q 542 815 476 865 q 623 722 595 779 q 656 774 636 751 q 703 815 675 798 q 852 865 768 865 l 1063 865 l 1063 593 l 804 593 q 766 586 785 593 q 733 566 748 578 q 709 536 719 553 q 697 500 700 519 l 940 500 l 940 350 l 697 350 q 709 313 700 330 q 733 284 719 296 q 766 264 748 271 q 804 257 785 257 l 1063 257 l 1063 -16 l 852 -16 z "},"ž":{"ha":758,"x_min":61,"x_max":697,"o":"m 436 908 l 322 908 l 208 1108 l 314 1108 l 379 1017 l 444 1108 l 549 1108 l 436 908 m 61 -16 l 61 249 l 427 593 l 61 593 l 61 865 l 697 865 l 697 602 l 330 257 l 697 257 l 697 -16 l 61 -16 z "},"Ÿ":{"ha":758,"x_min":61,"x_max":697,"o":"m 425 1031 l 425 1181 l 576 1181 l 576 1031 l 425 1031 m 182 1031 l 182 1181 l 334 1181 l 334 1031 l 182 1031 m 697 534 q 679 435 697 480 q 623 353 661 391 q 545 298 587 317 q 454 277 503 279 l 454 -16 l 304 -16 l 304 277 q 214 298 255 279 q 138 353 173 317 q 61 534 61 427 l 61 986 l 211 986 l 211 656 q 219 614 211 634 q 242 580 228 595 q 277 557 257 566 q 318 549 296 549 l 440 549 q 482 557 463 549 q 516 580 502 566 q 539 614 530 594 q 547 656 547 633 l 547 986 l 697 986 l 697 534 z "},"¡":{"ha":321,"x_min":60,"x_max":261,"o":"m 61 665 l 61 865 l 260 865 l 260 665 l 61 665 m 60 -136 l 111 574 l 210 574 l 261 -136 l 60 -136 z "},"¢":{"ha":758,"x_min":61,"x_max":697,"o":"m 515 107 l 515 -16 l 364 -16 l 364 107 l 318 107 q 221 126 265 107 q 138 183 176 144 q 61 364 61 260 l 61 729 q 138 909 61 836 q 221 967 176 948 q 318 986 265 986 l 364 986 l 364 1108 l 515 1108 l 515 986 l 697 986 l 697 714 l 318 714 q 277 706 296 714 q 242 683 257 697 q 219 648 228 668 q 211 607 211 629 l 211 486 q 219 445 211 465 q 242 411 228 425 q 277 388 257 396 q 318 379 296 379 l 697 379 l 697 107 l 515 107 z "},"£":{"ha":758,"x_min":61,"x_max":697,"o":"m 61 -16 l 61 790 q 79 889 61 844 q 136 972 98 934 q 220 1029 175 1011 q 318 1047 265 1047 l 576 1047 l 576 775 l 318 775 q 275 767 295 775 q 241 745 256 759 q 219 711 227 730 q 211 668 211 691 l 211 561 l 454 561 l 454 411 l 211 411 l 211 257 l 697 257 l 697 -16 l 61 -16 z "},"¤":{"ha":758,"x_min":61,"x_max":697,"o":"m 318 -16 q 221 4 265 -16 q 138 62 176 24 q 61 243 61 137 l 61 729 q 138 909 61 836 q 221 967 176 948 q 318 986 265 986 l 697 986 l 697 714 l 318 714 q 280 707 298 714 q 248 687 262 700 q 223 658 233 675 q 211 623 214 642 l 576 623 l 576 509 l 211 509 l 211 464 l 576 464 l 576 350 l 211 350 q 223 313 214 330 q 248 284 233 296 q 280 264 262 271 q 318 257 298 257 l 697 257 l 697 -16 l 318 -16 z "},"¥":{"ha":758,"x_min":61,"x_max":697,"o":"m 454 107 l 454 -16 l 304 -16 l 304 107 l 61 107 l 61 257 l 304 257 l 304 350 l 61 350 l 61 500 l 199 500 q 138 547 164 517 q 61 729 61 622 l 61 986 l 211 986 l 211 778 q 219 736 211 756 q 242 702 228 717 q 277 679 257 688 q 318 671 296 671 l 440 671 q 482 679 463 671 q 516 701 502 687 q 539 735 530 715 q 547 778 547 755 l 547 986 l 697 986 l 697 729 q 679 630 697 675 q 623 547 661 585 q 592 520 608 532 q 559 500 576 509 l 697 500 l 697 350 l 454 350 l 454 257 l 697 257 l 697 107 l 454 107 z "},"¦":{"ha":272,"x_min":61,"x_max":211,"o":"m 61 -136 l 61 415 l 211 415 l 211 -136 l 61 -136 m 61 557 l 61 1108 l 211 1108 l 211 557 l 61 557 z "},"§":{"ha":758,"x_min":61,"x_max":697,"o":"m 486 364 q 478 405 486 386 q 455 439 469 425 q 420 462 440 454 q 379 471 401 471 q 338 462 357 471 q 303 439 318 454 q 280 405 289 425 q 272 364 272 386 q 280 323 272 342 q 303 289 289 303 q 338 266 318 274 q 379 257 357 257 q 420 266 401 257 q 455 289 440 274 q 478 323 469 303 q 486 364 486 342 m 697 0 q 621 -180 697 -106 q 440 -258 544 -258 l 61 -258 l 61 14 l 440 14 q 473 27 459 14 q 486 61 486 41 q 473 94 486 80 q 440 107 459 107 l 318 107 q 221 126 265 107 q 138 183 176 144 q 61 364 61 260 q 79 463 61 417 q 136 547 98 509 q 79 629 98 584 q 61 729 61 675 q 138 909 61 836 q 221 967 176 948 q 318 986 265 986 l 697 986 l 697 714 l 318 714 q 286 701 299 714 q 272 668 272 688 q 286 636 272 649 q 318 623 299 623 l 440 623 q 621 546 545 623 q 697 364 697 469 q 679 264 697 311 q 623 182 660 218 q 697 0 697 107 z "},"¨":{"ha":515,"x_min":61,"x_max":454,"o":"m 61 836 l 61 986 l 211 986 l 211 836 l 61 836 m 304 836 l 304 986 l 454 986 l 454 836 l 304 836 z "},"©":{"ha":879,"x_min":61,"x_max":819,"o":"m 385 131 q 332 142 357 131 q 289 171 307 153 q 260 214 271 189 q 249 267 249 239 l 249 510 q 260 563 249 538 q 289 606 271 588 q 332 635 307 625 q 385 646 357 646 l 582 646 l 582 496 l 385 496 q 352 482 366 496 q 339 450 339 469 l 339 328 q 352 295 339 309 q 385 282 366 282 l 582 282 l 582 131 l 385 131 m 717 583 q 708 625 717 605 q 685 659 700 644 q 651 682 671 673 q 610 690 631 690 l 269 690 q 228 682 248 690 q 194 659 209 673 q 171 625 180 644 q 163 583 163 605 l 163 195 q 171 153 163 173 q 194 119 180 134 q 228 96 209 104 q 269 87 248 87 l 610 87 q 652 96 633 87 q 686 118 672 104 q 709 152 701 132 q 717 195 717 172 l 717 583 m 819 243 q 743 61 819 136 q 561 -16 669 -16 l 318 -16 q 136 61 212 -16 q 79 144 98 99 q 61 243 61 190 l 61 534 q 79 633 61 588 q 136 715 98 677 q 318 791 212 791 l 561 791 q 743 715 667 791 q 800 633 781 677 q 819 534 819 588 l 819 243 z "},"ª":{"ha":607,"x_min":61,"x_max":546,"o":"m 425 699 q 404 754 425 732 q 349 775 382 775 l 257 775 q 228 769 241 775 q 203 752 214 763 q 186 728 193 742 q 180 699 180 714 l 180 607 q 186 578 180 592 q 203 554 193 564 q 228 537 214 543 q 257 530 241 530 l 349 530 q 378 537 364 530 q 402 554 392 543 q 419 578 413 564 q 425 607 425 592 l 425 699 m 425 319 l 425 342 q 414 335 420 337 l 414 336 q 349 319 384 319 l 257 319 q 119 378 178 319 q 61 517 61 436 l 61 790 q 119 928 61 869 q 257 986 178 986 l 349 986 q 488 928 429 986 q 531 865 517 899 q 546 790 546 831 l 546 319 l 425 319 z "},"«":{"ha":873,"x_min":61,"x_max":819,"o":"m 385 -21 l 61 189 l 61 304 l 385 514 l 454 407 l 205 248 l 454 86 l 385 -21 m 750 -21 l 425 189 l 425 304 l 750 514 l 819 407 l 570 248 l 819 86 l 750 -21 z "},"¬":{"ha":636,"x_min":61,"x_max":576,"o":"m 450 240 l 450 363 l 61 363 l 61 489 l 576 489 l 576 240 l 450 240 z "},"®":{"ha":879,"x_min":61,"x_max":819,"o":"m 486 465 q 477 487 486 478 q 456 496 468 496 l 364 496 l 364 433 l 456 433 q 477 443 468 433 q 486 465 486 453 m 517 131 l 517 273 q 500 324 517 303 q 456 345 483 345 l 364 345 l 364 131 l 273 131 l 273 646 l 471 646 q 524 635 499 646 q 567 606 549 625 q 596 563 585 588 q 607 510 607 538 q 591 437 607 468 q 543 389 574 406 q 607 273 607 351 l 607 131 l 517 131 m 717 583 q 708 625 717 605 q 685 659 700 644 q 651 682 671 673 q 610 690 631 690 l 269 690 q 228 682 248 690 q 194 659 209 673 q 171 625 180 644 q 163 583 163 605 l 163 195 q 171 153 163 173 q 194 119 180 134 q 228 96 209 104 q 269 87 248 87 l 610 87 q 652 96 633 87 q 686 118 672 104 q 709 152 701 132 q 717 195 717 172 l 717 583 m 819 243 q 743 61 819 136 q 561 -16 669 -16 l 318 -16 q 136 61 212 -16 q 79 144 98 99 q 61 243 61 190 l 61 534 q 79 633 61 588 q 136 715 98 677 q 318 791 212 791 l 561 791 q 743 715 667 791 q 800 633 781 677 q 819 534 819 588 l 819 243 z "},"°":{"ha":441,"x_min":61,"x_max":382,"o":"m 304 888 q 298 919 304 904 q 280 945 291 934 q 253 963 269 956 q 221 970 238 970 q 189 963 204 970 q 163 945 174 956 q 145 919 152 934 q 139 888 139 904 q 145 855 139 870 q 163 829 152 840 q 189 811 174 817 q 221 804 204 804 q 253 811 238 804 q 280 829 269 817 q 298 855 291 840 q 304 888 304 870 m 382 888 q 370 826 382 854 q 335 774 358 798 q 282 739 311 751 q 221 726 254 726 q 160 739 189 726 q 109 774 132 751 q 61 888 61 821 q 109 1000 61 952 q 221 1047 155 1047 q 335 1000 288 1047 q 382 888 382 950 z "},"±":{"ha":636,"x_min":61,"x_max":576,"o":"m 61 -16 l 61 111 l 576 111 l 576 -16 l 61 -16 m 382 422 l 382 228 l 256 228 l 256 422 l 61 422 l 61 549 l 256 549 l 256 743 l 382 743 l 382 549 l 576 549 l 576 422 l 382 422 z "},"²":{"ha":454,"x_min":61,"x_max":393,"o":"m 61 593 l 61 760 q 72 813 61 788 q 100 856 82 838 q 144 885 119 874 q 197 896 169 896 l 225 896 q 273 928 273 896 q 264 949 273 941 q 243 957 256 957 l 61 957 l 61 1108 l 257 1108 q 311 1097 286 1108 q 354 1068 336 1086 q 383 1025 372 1050 q 393 972 393 1000 l 393 942 q 383 889 393 913 q 354 846 372 864 q 311 817 336 827 q 257 806 286 806 l 182 806 q 160 797 170 806 q 150 775 150 787 l 150 743 l 393 743 l 393 593 l 61 593 z "},"³":{"ha":454,"x_min":61,"x_max":393,"o":"m 393 729 q 383 676 393 701 q 354 633 372 652 q 311 604 336 614 q 257 593 286 593 l 61 593 l 61 743 l 243 743 q 264 753 256 743 q 273 775 273 762 q 264 797 273 787 q 243 806 256 806 l 121 806 l 121 896 l 243 896 q 264 905 256 896 q 273 928 273 914 q 264 949 273 941 q 243 957 256 957 l 61 957 l 61 1108 l 257 1108 q 313 1097 288 1108 q 356 1067 338 1086 q 384 1022 374 1048 q 393 966 393 996 q 376 899 393 930 q 329 850 359 869 q 393 729 393 816 z "},"´":{"ha":321,"x_min":52,"x_max":267,"o":"m 164 787 l 52 986 l 182 986 l 267 787 l 164 787 z "},"µ":{"ha":758,"x_min":61,"x_max":697,"o":"m 318 -16 q 274 -9 295 -16 q 233 7 252 -3 q 211 22 222 13 l 211 -258 l 61 -258 l 61 865 l 211 865 l 211 364 q 219 323 211 342 q 242 289 228 303 q 277 266 257 274 q 318 257 296 257 l 547 257 l 547 865 l 697 865 l 697 -16 l 318 -16 z "},"μ":{"ha":758,"x_min":61,"x_max":697,"o":"m 318 -16 q 274 -9 295 -16 q 233 7 252 -3 q 211 22 222 13 l 211 -258 l 61 -258 l 61 865 l 211 865 l 211 364 q 219 323 211 342 q 242 289 228 303 q 277 266 257 274 q 318 257 296 257 l 547 257 l 547 865 l 697 865 l 697 -16 l 318 -16 z "},"¶":{"ha":879,"x_min":61,"x_max":819,"o":"m 697 836 l 697 -258 l 547 -258 l 547 836 l 454 836 l 454 -258 l 304 -258 l 304 411 q 214 432 255 413 q 138 488 173 452 q 80 571 99 526 q 61 668 61 615 l 61 729 q 138 909 61 836 q 221 967 176 948 q 318 986 265 986 l 819 986 l 819 836 l 697 836 z "},"·":{"ha":321,"x_min":61,"x_max":260,"o":"m 61 325 l 61 525 l 260 525 l 260 325 l 61 325 z "},"¸":{"ha":345,"x_min":56,"x_max":285,"o":"m 285 -146 q 276 -190 285 -170 q 252 -225 267 -210 q 216 -250 237 -241 q 172 -258 195 -258 l 56 -258 l 78 -192 l 172 -192 q 205 -178 192 -192 q 218 -146 218 -165 q 205 -113 218 -127 q 172 -100 192 -100 l 93 -100 l 123 39 l 228 39 l 208 -40 q 239 -57 225 -46 q 263 -81 253 -67 q 279 -112 273 -95 q 285 -146 285 -128 z "},"¹":{"ha":272,"x_min":61,"x_max":211,"o":"m 61 593 l 61 743 l 92 743 l 92 957 l 61 957 l 61 1108 l 180 1108 l 180 743 l 211 743 l 211 593 l 61 593 z "},"º":{"ha":607,"x_min":61,"x_max":546,"o":"m 425 699 q 419 728 425 714 q 402 752 413 742 q 378 769 392 763 q 349 775 364 775 l 257 775 q 228 769 241 775 q 203 752 214 763 q 186 728 193 742 q 180 699 180 714 l 180 607 q 186 578 180 592 q 203 554 193 564 q 228 537 214 543 q 257 530 241 530 l 349 530 q 379 536 366 530 q 404 552 393 542 q 419 577 414 563 q 425 607 425 591 l 425 699 m 546 517 q 488 376 546 435 q 349 319 431 319 l 257 319 q 119 378 178 319 q 61 517 61 436 l 61 790 q 119 928 61 869 q 257 986 178 986 l 349 986 q 488 928 429 986 q 546 790 546 869 l 546 517 z "},"»":{"ha":873,"x_min":54,"x_max":812,"o":"m 123 -21 l 54 86 l 302 248 l 54 407 l 123 514 l 449 304 l 449 189 l 123 -21 m 489 -21 l 419 86 l 667 248 l 419 407 l 489 514 l 812 304 l 812 189 l 489 -21 z "},"¼":{"ha":636,"x_min":61,"x_max":576,"o":"m 256 568 l 256 694 l 279 694 l 279 860 l 256 860 l 256 986 l 357 986 l 357 694 l 382 694 l 382 568 l 256 568 m 61 435 l 61 538 l 576 538 l 576 435 l 61 435 m 376 -16 l 376 53 l 182 53 l 182 306 l 260 306 l 260 179 l 376 179 l 376 403 l 454 403 l 454 -16 l 376 -16 z "},"½":{"ha":636,"x_min":61,"x_max":576,"o":"m 256 568 l 256 694 l 279 694 l 279 860 l 256 860 l 256 986 l 357 986 l 357 694 l 382 694 l 382 568 l 256 568 m 61 435 l 61 538 l 576 538 l 576 435 l 61 435 m 182 -16 l 182 121 q 191 164 182 144 q 215 200 199 185 q 250 224 230 216 q 294 233 271 233 l 330 233 q 353 256 353 233 q 330 277 353 277 l 182 277 l 182 403 l 343 403 q 386 394 366 403 q 421 371 406 386 q 446 335 437 355 q 454 292 454 315 l 454 267 q 446 223 454 243 q 421 188 437 203 q 386 164 406 173 q 343 155 366 155 l 282 155 q 260 134 260 155 l 260 111 l 454 111 l 454 -16 l 182 -16 z "},"¾":{"ha":636,"x_min":61,"x_max":576,"o":"m 61 435 l 61 538 l 576 538 l 576 435 l 61 435 m 376 -16 l 376 53 l 182 53 l 182 306 l 260 306 l 260 179 l 376 179 l 376 403 l 454 403 l 454 -16 l 376 -16 m 454 681 q 446 637 454 657 q 421 601 437 616 q 386 577 406 586 q 343 568 366 568 l 182 568 l 182 694 l 330 694 q 353 717 353 694 q 330 739 353 739 l 231 739 l 231 817 l 330 817 q 353 839 353 817 q 330 860 353 860 l 182 860 l 182 986 l 343 986 q 386 978 366 986 q 421 954 406 969 q 446 918 437 939 q 454 875 454 898 l 454 869 q 407 777 454 806 q 443 738 431 762 q 454 681 454 713 z "},"¿":{"ha":685,"x_min":61,"x_max":625,"o":"m 364 665 l 364 865 l 564 865 l 564 665 l 364 665 m 318 -136 q 221 -117 265 -136 q 138 -60 176 -98 q 61 121 61 17 q 138 302 61 227 q 221 360 176 341 q 318 379 265 379 l 401 379 l 414 574 l 514 574 l 539 228 l 318 228 q 286 215 299 228 q 272 182 272 201 q 286 150 272 163 q 318 136 299 136 l 625 136 l 625 -136 l 318 -136 z "},"À":{"ha":758,"x_min":61,"x_max":697,"o":"m 335 1031 l 221 1229 l 353 1229 l 437 1031 l 335 1031 m 211 379 l 547 379 l 547 607 q 539 650 547 630 q 516 684 530 669 q 482 706 502 698 q 440 714 463 714 l 318 714 q 277 706 296 714 q 242 683 257 697 q 219 648 228 668 q 211 607 211 629 l 211 379 m 547 -16 l 547 228 l 211 228 l 211 -16 l 61 -16 l 61 729 q 138 909 61 836 q 221 967 176 948 q 318 986 265 986 l 440 986 q 539 968 494 986 q 623 911 584 949 q 679 828 661 872 q 697 729 697 784 l 697 -16 l 547 -16 z "},"Á":{"ha":758,"x_min":61,"x_max":697,"o":"m 424 1031 l 321 1031 l 406 1229 l 538 1229 l 424 1031 m 211 379 l 547 379 l 547 607 q 539 650 547 630 q 516 684 530 669 q 482 706 502 698 q 440 714 463 714 l 318 714 q 277 706 296 714 q 242 683 257 697 q 219 648 228 668 q 211 607 211 629 l 211 379 m 547 -16 l 547 228 l 211 228 l 211 -16 l 61 -16 l 61 729 q 138 909 61 836 q 221 967 176 948 q 318 986 265 986 l 440 986 q 539 968 494 986 q 623 911 584 949 q 679 828 661 872 q 697 729 697 784 l 697 -16 l 547 -16 z "},"Â":{"ha":758,"x_min":61,"x_max":697,"o":"m 444 1031 l 379 1122 l 314 1031 l 208 1031 l 322 1229 l 436 1229 l 549 1031 l 444 1031 m 211 379 l 547 379 l 547 607 q 539 650 547 630 q 516 684 530 669 q 482 706 502 698 q 440 714 463 714 l 318 714 q 277 706 296 714 q 242 683 257 697 q 219 648 228 668 q 211 607 211 629 l 211 379 m 547 -16 l 547 228 l 211 228 l 211 -16 l 61 -16 l 61 729 q 138 909 61 836 q 221 967 176 948 q 318 986 265 986 l 440 986 q 539 968 494 986 q 623 911 584 949 q 679 828 661 872 q 697 729 697 784 l 697 -16 l 547 -16 z "},"Ã":{"ha":758,"x_min":61,"x_max":697,"o":"m 571 1083 q 510 1043 543 1056 q 440 1031 478 1031 q 408 1038 426 1031 q 371 1057 391 1044 q 341 1074 354 1069 q 318 1079 328 1079 q 251 1062 286 1079 q 182 1011 216 1046 l 182 1147 q 318 1206 241 1206 q 350 1199 333 1206 q 387 1179 368 1192 q 417 1162 404 1168 q 440 1157 431 1157 q 576 1225 506 1157 l 576 1093 l 571 1083 m 211 379 l 547 379 l 547 607 q 539 650 547 630 q 516 684 530 669 q 482 706 502 698 q 440 714 463 714 l 318 714 q 277 706 296 714 q 242 683 257 697 q 219 648 228 668 q 211 607 211 629 l 211 379 m 547 -16 l 547 228 l 211 228 l 211 -16 l 61 -16 l 61 729 q 138 909 61 836 q 221 967 176 948 q 318 986 265 986 l 440 986 q 539 968 494 986 q 623 911 584 949 q 679 828 661 872 q 697 729 697 784 l 697 -16 l 547 -16 z "},"Ä":{"ha":758,"x_min":61,"x_max":697,"o":"m 425 1031 l 425 1181 l 576 1181 l 576 1031 l 425 1031 m 182 1031 l 182 1181 l 334 1181 l 334 1031 l 182 1031 m 211 379 l 547 379 l 547 607 q 539 650 547 630 q 516 684 530 669 q 482 706 502 698 q 440 714 463 714 l 318 714 q 277 706 296 714 q 242 683 257 697 q 219 648 228 668 q 211 607 211 629 l 211 379 m 547 -16 l 547 228 l 211 228 l 211 -16 l 61 -16 l 61 729 q 138 909 61 836 q 221 967 176 948 q 318 986 265 986 l 440 986 q 539 968 494 986 q 623 911 584 949 q 679 828 661 872 q 697 729 697 784 l 697 -16 l 547 -16 z "},"Å":{"ha":758,"x_min":61,"x_max":697,"o":"m 461 1069 q 455 1101 461 1086 q 437 1127 448 1116 q 411 1145 426 1138 q 379 1152 396 1152 q 348 1145 363 1152 q 321 1127 332 1138 q 302 1101 309 1116 q 296 1069 296 1086 q 302 1038 296 1053 q 321 1011 309 1023 q 348 993 332 1000 q 379 986 363 986 q 411 993 396 986 q 437 1011 426 1000 q 455 1038 448 1023 q 461 1069 461 1053 m 211 379 l 547 379 l 547 607 q 539 650 547 630 q 516 684 530 669 q 482 706 502 698 q 440 714 463 714 l 318 714 q 277 706 296 714 q 242 683 257 697 q 219 648 228 668 q 211 607 211 629 l 211 379 m 547 -16 l 547 228 l 211 228 l 211 -16 l 61 -16 l 61 729 q 121 895 61 824 q 178 946 146 926 q 248 977 211 966 q 218 1069 218 1018 q 231 1131 218 1102 q 267 1182 243 1159 q 379 1229 311 1229 q 440 1217 412 1229 q 492 1182 469 1206 q 527 1131 515 1159 q 539 1069 539 1102 q 532 1021 539 1044 q 511 977 525 998 q 637 895 587 958 q 697 729 697 824 l 697 -16 l 547 -16 z "},"Æ":{"ha":1063,"x_min":61,"x_max":1002,"o":"m 211 379 l 547 379 l 547 607 q 539 650 547 630 q 516 684 530 669 q 482 706 502 698 q 440 714 463 714 l 318 714 q 277 706 296 714 q 242 683 257 697 q 219 648 228 668 q 211 607 211 629 l 211 379 m 804 -16 q 623 61 699 -16 q 568 138 587 97 q 547 228 549 179 l 211 228 l 211 -16 l 61 -16 l 61 729 q 138 909 61 836 q 221 967 176 948 q 318 986 265 986 l 392 986 q 475 974 437 986 q 547 936 513 962 l 547 986 l 1002 986 l 1002 714 l 697 714 l 697 561 l 879 561 l 879 411 l 697 411 l 697 364 q 705 322 697 342 q 728 288 713 302 q 762 266 742 274 q 804 257 781 257 l 1002 257 l 1002 -16 l 804 -16 z "},"Ç":{"ha":758,"x_min":61,"x_max":697,"o":"m 471 -16 l 464 -40 q 518 -81 498 -52 q 539 -146 539 -110 q 531 -190 539 -170 q 507 -225 522 -210 q 471 -250 492 -241 q 428 -258 451 -258 l 311 -258 l 334 -192 l 428 -192 q 460 -178 447 -192 q 473 -146 473 -165 q 460 -113 473 -127 q 428 -100 447 -100 l 349 -100 l 367 -16 l 318 -16 q 221 4 265 -16 q 138 62 176 24 q 61 243 61 137 l 61 729 q 138 909 61 836 q 221 967 176 948 q 318 986 265 986 l 697 986 l 697 714 l 318 714 q 277 706 296 714 q 242 683 257 697 q 219 648 228 668 q 211 607 211 629 l 211 364 q 219 323 211 342 q 242 289 228 303 q 277 266 257 274 q 318 257 296 257 l 697 257 l 697 -16 l 471 -16 z "},"È":{"ha":636,"x_min":61,"x_max":576,"o":"m 273 1031 l 160 1229 l 292 1229 l 376 1031 l 273 1031 m 318 -16 q 136 61 212 -16 q 79 144 98 99 q 61 243 61 189 l 61 986 l 576 986 l 576 714 l 211 714 l 211 561 l 454 561 l 454 411 l 211 411 l 211 364 q 219 322 211 342 q 241 288 227 302 q 275 266 256 274 q 318 257 295 257 l 576 257 l 576 -16 l 318 -16 z "},"É":{"ha":636,"x_min":61,"x_max":576,"o":"m 364 1031 l 260 1031 l 345 1229 l 476 1229 l 364 1031 m 318 -16 q 136 61 212 -16 q 79 144 98 99 q 61 243 61 189 l 61 986 l 576 986 l 576 714 l 211 714 l 211 561 l 454 561 l 454 411 l 211 411 l 211 364 q 219 322 211 342 q 241 288 227 302 q 275 266 256 274 q 318 257 295 257 l 576 257 l 576 -16 l 318 -16 z "},"Ê":{"ha":636,"x_min":61,"x_max":576,"o":"m 383 1031 l 318 1122 l 253 1031 l 149 1031 l 261 1229 l 375 1229 l 489 1031 l 383 1031 m 318 -16 q 136 61 212 -16 q 79 144 98 99 q 61 243 61 189 l 61 986 l 576 986 l 576 714 l 211 714 l 211 561 l 454 561 l 454 411 l 211 411 l 211 364 q 219 322 211 342 q 241 288 227 302 q 275 266 256 274 q 318 257 295 257 l 576 257 l 576 -16 l 318 -16 z "},"Ë":{"ha":636,"x_min":61,"x_max":576,"o":"m 364 1031 l 364 1181 l 515 1181 l 515 1031 l 364 1031 m 121 1031 l 121 1181 l 272 1181 l 272 1031 l 121 1031 m 318 -16 q 136 61 212 -16 q 79 144 98 99 q 61 243 61 189 l 61 986 l 576 986 l 576 714 l 211 714 l 211 561 l 454 561 l 454 411 l 211 411 l 211 364 q 219 322 211 342 q 241 288 227 302 q 275 266 256 274 q 318 257 295 257 l 576 257 l 576 -16 l 318 -16 z "},"Ì":{"ha":393,"x_min":39,"x_max":334,"o":"m 151 1031 l 39 1229 l 170 1229 l 256 1031 l 151 1031 m 61 -16 l 61 257 l 121 257 l 121 714 l 61 714 l 61 986 l 334 986 l 334 714 l 272 714 l 272 257 l 334 257 l 334 -16 l 61 -16 z "},"Í":{"ha":393,"x_min":61,"x_max":354,"o":"m 241 1031 l 139 1031 l 224 1229 l 354 1229 l 241 1031 m 61 -16 l 61 257 l 121 257 l 121 714 l 61 714 l 61 986 l 334 986 l 334 714 l 272 714 l 272 257 l 334 257 l 334 -16 l 61 -16 z "},"Î":{"ha":393,"x_min":26,"x_max":367,"o":"m 262 1031 l 197 1122 l 131 1031 l 26 1031 l 140 1229 l 254 1229 l 367 1031 l 262 1031 m 61 -16 l 61 257 l 121 257 l 121 714 l 61 714 l 61 986 l 334 986 l 334 714 l 272 714 l 272 257 l 334 257 l 334 -16 l 61 -16 z "},"Ï":{"ha":393,"x_min":0,"x_max":393,"o":"m 243 1031 l 243 1181 l 393 1181 l 393 1031 l 243 1031 m 0 1031 l 0 1181 l 150 1181 l 150 1031 l 0 1031 m 61 -16 l 61 257 l 121 257 l 121 714 l 61 714 l 61 986 l 334 986 l 334 714 l 272 714 l 272 257 l 334 257 l 334 -16 l 61 -16 z "},"Ð":{"ha":850,"x_min":31,"x_max":789,"o":"m 637 607 q 629 648 637 629 q 606 683 621 668 q 572 706 591 697 q 530 714 552 714 l 302 714 l 302 561 l 546 561 l 546 411 l 302 411 l 302 257 l 530 257 q 573 266 553 257 q 607 288 593 274 q 629 322 621 302 q 637 364 637 342 l 637 607 m 789 243 q 770 144 789 189 q 714 61 751 99 q 530 -16 637 -16 l 151 -16 l 151 411 l 31 411 l 31 561 l 151 561 l 151 986 l 530 986 q 713 909 636 986 q 769 827 750 872 q 789 729 789 783 l 789 243 z "},"Ñ":{"ha":758,"x_min":61,"x_max":697,"o":"m 571 1083 q 510 1043 543 1056 q 440 1031 478 1031 q 408 1038 426 1031 q 371 1057 391 1044 q 341 1074 354 1069 q 318 1079 328 1079 q 251 1062 286 1079 q 182 1011 216 1046 l 182 1147 q 318 1206 241 1206 q 350 1199 333 1206 q 387 1179 368 1192 q 417 1162 404 1168 q 440 1157 431 1157 q 576 1225 506 1157 l 576 1093 l 571 1083 m 547 -16 l 547 607 q 539 650 547 630 q 516 684 530 669 q 482 706 502 698 q 440 714 463 714 l 318 714 q 277 706 296 714 q 242 683 257 697 q 219 648 228 668 q 211 607 211 629 l 211 -16 l 61 -16 l 61 729 q 79 827 61 783 q 136 909 98 872 q 318 986 212 986 l 440 986 q 539 968 494 986 q 623 911 584 949 q 679 828 661 872 q 697 729 697 784 l 697 -16 l 547 -16 z "},"Ò":{"ha":758,"x_min":61,"x_max":697,"o":"m 335 1031 l 221 1229 l 353 1229 l 437 1031 l 335 1031 m 547 607 q 539 648 547 629 q 516 683 530 668 q 481 706 501 697 q 440 714 462 714 l 318 714 q 277 706 296 714 q 242 683 257 697 q 219 648 228 668 q 211 607 211 629 l 211 364 q 219 323 211 342 q 242 289 228 303 q 277 266 257 274 q 318 257 296 257 l 440 257 q 482 266 463 257 q 516 288 502 274 q 539 322 530 302 q 547 364 547 342 l 547 607 m 697 243 q 679 144 697 189 q 623 61 661 99 q 440 -16 546 -16 l 318 -16 q 136 61 212 -16 q 79 144 98 99 q 61 243 61 190 l 61 729 q 79 827 61 783 q 136 909 98 872 q 318 986 212 986 l 440 986 q 621 909 545 986 q 697 729 697 836 l 697 243 z "},"Ó":{"ha":758,"x_min":61,"x_max":697,"o":"m 424 1031 l 321 1031 l 406 1229 l 538 1229 l 424 1031 m 547 607 q 539 648 547 629 q 516 683 530 668 q 481 706 501 697 q 440 714 462 714 l 318 714 q 277 706 296 714 q 242 683 257 697 q 219 648 228 668 q 211 607 211 629 l 211 364 q 219 323 211 342 q 242 289 228 303 q 277 266 257 274 q 318 257 296 257 l 440 257 q 482 266 463 257 q 516 288 502 274 q 539 322 530 302 q 547 364 547 342 l 547 607 m 697 243 q 679 144 697 189 q 623 61 661 99 q 440 -16 546 -16 l 318 -16 q 136 61 212 -16 q 79 144 98 99 q 61 243 61 190 l 61 729 q 79 827 61 783 q 136 909 98 872 q 318 986 212 986 l 440 986 q 621 909 545 986 q 697 729 697 836 l 697 243 z "},"Ô":{"ha":758,"x_min":61,"x_max":697,"o":"m 444 1031 l 379 1122 l 314 1031 l 208 1031 l 322 1229 l 436 1229 l 549 1031 l 444 1031 m 547 607 q 539 648 547 629 q 516 683 530 668 q 481 706 501 697 q 440 714 462 714 l 318 714 q 277 706 296 714 q 242 683 257 697 q 219 648 228 668 q 211 607 211 629 l 211 364 q 219 323 211 342 q 242 289 228 303 q 277 266 257 274 q 318 257 296 257 l 440 257 q 482 266 463 257 q 516 288 502 274 q 539 322 530 302 q 547 364 547 342 l 547 607 m 697 243 q 679 144 697 189 q 623 61 661 99 q 440 -16 546 -16 l 318 -16 q 136 61 212 -16 q 79 144 98 99 q 61 243 61 190 l 61 729 q 79 827 61 783 q 136 909 98 872 q 318 986 212 986 l 440 986 q 621 909 545 986 q 697 729 697 836 l 697 243 z "},"Õ":{"ha":758,"x_min":61,"x_max":697,"o":"m 571 1083 q 510 1043 543 1056 q 440 1031 478 1031 q 408 1038 426 1031 q 371 1057 391 1044 q 341 1074 354 1069 q 318 1079 328 1079 q 251 1062 286 1079 q 182 1011 216 1046 l 182 1147 q 318 1206 241 1206 q 350 1199 333 1206 q 387 1179 368 1192 q 417 1162 404 1168 q 440 1157 431 1157 q 576 1225 506 1157 l 576 1093 l 571 1083 m 547 607 q 539 648 547 629 q 516 683 530 668 q 481 706 501 697 q 440 714 462 714 l 318 714 q 277 706 296 714 q 242 683 257 697 q 219 648 228 668 q 211 607 211 629 l 211 364 q 219 323 211 342 q 242 289 228 303 q 277 266 257 274 q 318 257 296 257 l 440 257 q 482 266 463 257 q 516 288 502 274 q 539 322 530 302 q 547 364 547 342 l 547 607 m 697 243 q 679 144 697 189 q 623 61 661 99 q 440 -16 546 -16 l 318 -16 q 136 61 212 -16 q 79 144 98 99 q 61 243 61 190 l 61 729 q 79 827 61 783 q 136 909 98 872 q 318 986 212 986 l 440 986 q 621 909 545 986 q 697 729 697 836 l 697 243 z "},"Ö":{"ha":758,"x_min":61,"x_max":697,"o":"m 182 1031 l 182 1181 l 334 1181 l 334 1031 l 182 1031 m 425 1031 l 425 1181 l 576 1181 l 576 1031 l 425 1031 m 547 607 q 539 648 547 629 q 516 683 530 668 q 481 706 501 697 q 440 714 462 714 l 318 714 q 277 706 296 714 q 242 683 257 697 q 219 648 228 668 q 211 607 211 629 l 211 364 q 219 323 211 342 q 242 289 228 303 q 277 266 257 274 q 318 257 296 257 l 440 257 q 482 266 463 257 q 516 288 502 274 q 539 322 530 302 q 547 364 547 342 l 547 607 m 697 243 q 679 144 697 189 q 623 61 661 99 q 440 -16 546 -16 l 318 -16 q 136 61 212 -16 q 79 144 98 99 q 61 243 61 190 l 61 729 q 79 827 61 783 q 136 909 98 872 q 318 986 212 986 l 440 986 q 621 909 545 986 q 697 729 697 836 l 697 243 z "},"×":{"ha":597,"x_min":56,"x_max":542,"o":"m 453 182 l 298 336 l 144 182 l 56 271 l 210 425 l 56 579 l 144 668 l 298 514 l 453 668 l 542 579 l 387 425 l 542 271 l 453 182 z "},"Ø":{"ha":758,"x_min":-5,"x_max":764,"o":"m 211 364 q 215 338 211 350 l 482 704 q 461 712 471 711 q 440 714 451 714 l 318 714 q 277 706 296 714 q 242 683 257 697 q 219 648 228 668 q 211 607 211 629 l 211 364 m 547 607 q 543 635 547 623 l 277 267 q 297 259 286 261 q 318 257 308 257 l 440 257 q 482 266 463 257 q 516 288 502 274 q 539 322 530 302 q 547 364 547 342 l 547 607 m 681 822 q 694 776 690 799 q 697 729 697 753 l 697 243 q 679 144 697 189 q 623 61 661 99 q 440 -16 546 -16 l 318 -16 q 215 5 262 -16 q 131 66 168 26 l 66 -21 l -5 33 l 78 149 q 65 195 68 172 q 61 243 61 218 l 61 729 q 79 827 61 783 q 136 909 98 872 q 318 986 212 986 l 440 986 q 628 904 552 986 l 692 993 l 764 939 l 681 822 z "},"Ù":{"ha":758,"x_min":61,"x_max":697,"o":"m 335 1031 l 221 1229 l 353 1229 l 437 1031 l 335 1031 m 697 243 q 679 144 697 189 q 623 61 661 99 q 440 -16 546 -16 l 318 -16 q 136 61 212 -16 q 79 144 98 99 q 61 243 61 190 l 61 986 l 211 986 l 211 364 q 219 323 211 342 q 242 289 228 303 q 277 266 257 274 q 318 257 296 257 l 440 257 q 482 266 463 257 q 516 288 502 274 q 539 322 530 302 q 547 364 547 342 l 547 986 l 697 986 l 697 243 z "},"Ú":{"ha":758,"x_min":61,"x_max":697,"o":"m 424 1031 l 321 1031 l 406 1229 l 538 1229 l 424 1031 m 697 243 q 679 144 697 189 q 623 61 661 99 q 440 -16 546 -16 l 318 -16 q 136 61 212 -16 q 79 144 98 99 q 61 243 61 190 l 61 986 l 211 986 l 211 364 q 219 323 211 342 q 242 289 228 303 q 277 266 257 274 q 318 257 296 257 l 440 257 q 482 266 463 257 q 516 288 502 274 q 539 322 530 302 q 547 364 547 342 l 547 986 l 697 986 l 697 243 z "},"Û":{"ha":758,"x_min":61,"x_max":697,"o":"m 444 1031 l 379 1122 l 314 1031 l 208 1031 l 322 1229 l 436 1229 l 549 1031 l 444 1031 m 697 243 q 679 144 697 189 q 623 61 661 99 q 440 -16 546 -16 l 318 -16 q 136 61 212 -16 q 79 144 98 99 q 61 243 61 190 l 61 986 l 211 986 l 211 364 q 219 323 211 342 q 242 289 228 303 q 277 266 257 274 q 318 257 296 257 l 440 257 q 482 266 463 257 q 516 288 502 274 q 539 322 530 302 q 547 364 547 342 l 547 986 l 697 986 l 697 243 z "},"Ü":{"ha":758,"x_min":61,"x_max":697,"o":"m 182 1031 l 182 1181 l 334 1181 l 334 1031 l 182 1031 m 425 1031 l 425 1181 l 576 1181 l 576 1031 l 425 1031 m 697 243 q 679 144 697 189 q 623 61 661 99 q 440 -16 546 -16 l 318 -16 q 136 61 212 -16 q 79 144 98 99 q 61 243 61 190 l 61 986 l 211 986 l 211 364 q 219 323 211 342 q 242 289 228 303 q 277 266 257 274 q 318 257 296 257 l 440 257 q 482 266 463 257 q 516 288 502 274 q 539 322 530 302 q 547 364 547 342 l 547 986 l 697 986 l 697 243 z "},"Ý":{"ha":758,"x_min":61,"x_max":697,"o":"m 424 1031 l 321 1031 l 406 1229 l 538 1229 l 424 1031 m 697 534 q 679 435 697 480 q 623 353 661 391 q 545 298 587 317 q 454 277 503 279 l 454 -16 l 304 -16 l 304 277 q 214 298 255 279 q 138 353 173 317 q 61 534 61 427 l 61 986 l 211 986 l 211 656 q 219 614 211 634 q 242 580 228 595 q 277 557 257 566 q 318 549 296 549 l 440 549 q 482 557 463 549 q 516 580 502 566 q 539 614 530 594 q 547 656 547 633 l 547 986 l 697 986 l 697 534 z "},"Þ":{"ha":758,"x_min":61,"x_max":697,"o":"m 486 425 q 480 455 486 441 q 464 479 474 469 q 439 495 453 489 q 410 501 425 501 l 211 501 l 211 349 l 410 349 q 439 355 425 349 q 464 371 453 361 q 480 396 474 382 q 486 425 486 410 m 697 456 q 621 275 697 349 q 440 199 545 199 l 211 199 l 211 -16 l 61 -16 l 61 986 l 211 986 l 211 774 l 440 774 q 621 697 545 774 q 678 614 659 659 q 697 517 697 570 l 697 456 z "},"ß":{"ha":758,"x_min":61,"x_max":697,"o":"m 697 243 q 621 62 697 137 q 440 -16 544 -16 l 304 -16 l 304 257 l 410 257 q 439 263 425 257 q 464 280 453 269 q 480 305 474 291 q 486 335 486 319 q 480 364 486 350 q 464 388 474 378 q 439 405 453 399 q 410 411 425 411 l 304 411 l 304 561 l 410 561 q 439 567 425 561 q 464 584 453 574 q 480 609 474 595 q 486 637 486 623 q 480 667 486 653 q 464 691 474 681 q 439 708 453 702 q 410 714 425 714 l 288 714 q 259 708 273 714 q 234 691 245 702 q 217 667 224 681 q 211 637 211 653 l 211 -136 l 61 -136 l 61 729 q 79 828 61 784 q 136 911 98 872 q 220 968 175 949 q 318 986 265 986 l 440 986 q 621 909 545 986 q 697 729 697 836 l 697 717 q 685 637 697 675 q 647 567 673 600 q 553 485 610 511 q 660 387 622 451 q 697 243 697 323 z "},"à":{"ha":758,"x_min":61,"x_max":697,"o":"m 335 908 l 221 1108 l 353 1108 l 437 908 l 335 908 m 547 486 q 539 529 547 509 q 516 562 530 548 q 482 585 502 576 q 440 593 463 593 l 318 593 q 277 584 296 593 q 242 561 257 576 q 219 527 228 547 q 211 486 211 508 l 211 364 q 219 323 211 342 q 242 289 228 303 q 277 266 257 274 q 318 257 296 257 l 440 257 q 481 266 462 257 q 516 289 501 274 q 539 323 530 303 q 547 364 547 342 l 547 486 m 547 -16 l 547 22 q 536 15 542 18 q 525 7 530 11 q 485 -9 506 -3 q 440 -16 463 -16 l 318 -16 q 221 4 265 -16 q 138 62 176 24 q 61 243 61 137 l 61 607 q 138 789 61 712 q 221 846 176 827 q 318 865 265 865 l 440 865 q 623 790 545 865 q 679 706 661 751 q 697 607 697 661 l 697 -16 l 547 -16 z "},"á":{"ha":758,"x_min":61,"x_max":697,"o":"m 424 908 l 321 908 l 406 1108 l 538 1108 l 424 908 m 547 486 q 539 529 547 509 q 516 562 530 548 q 482 585 502 576 q 440 593 463 593 l 318 593 q 277 584 296 593 q 242 561 257 576 q 219 527 228 547 q 211 486 211 508 l 211 364 q 219 323 211 342 q 242 289 228 303 q 277 266 257 274 q 318 257 296 257 l 440 257 q 481 266 462 257 q 516 289 501 274 q 539 323 530 303 q 547 364 547 342 l 547 486 m 547 -16 l 547 22 q 536 15 542 18 q 525 7 530 11 q 485 -9 506 -3 q 440 -16 463 -16 l 318 -16 q 221 4 265 -16 q 138 62 176 24 q 61 243 61 137 l 61 607 q 138 789 61 712 q 221 846 176 827 q 318 865 265 865 l 440 865 q 623 790 545 865 q 679 706 661 751 q 697 607 697 661 l 697 -16 l 547 -16 z "},"â":{"ha":758,"x_min":61,"x_max":697,"o":"m 444 908 l 379 1000 l 314 908 l 208 908 l 322 1108 l 436 1108 l 549 908 l 444 908 m 547 486 q 539 529 547 509 q 516 562 530 548 q 482 585 502 576 q 440 593 463 593 l 318 593 q 277 584 296 593 q 242 561 257 576 q 219 527 228 547 q 211 486 211 508 l 211 364 q 219 323 211 342 q 242 289 228 303 q 277 266 257 274 q 318 257 296 257 l 440 257 q 481 266 462 257 q 516 289 501 274 q 539 323 530 303 q 547 364 547 342 l 547 486 m 547 -16 l 547 22 q 536 15 542 18 q 525 7 530 11 q 485 -9 506 -3 q 440 -16 463 -16 l 318 -16 q 221 4 265 -16 q 138 62 176 24 q 61 243 61 137 l 61 607 q 138 789 61 712 q 221 846 176 827 q 318 865 265 865 l 440 865 q 623 790 545 865 q 679 706 661 751 q 697 607 697 661 l 697 -16 l 547 -16 z "},"ã":{"ha":758,"x_min":61,"x_max":697,"o":"m 571 961 q 510 922 543 935 q 440 908 478 908 q 408 915 426 908 q 371 936 391 922 q 318 957 338 957 q 251 941 286 957 q 182 889 216 924 l 182 1025 q 318 1083 240 1083 q 350 1076 333 1083 q 387 1057 368 1069 q 417 1041 404 1046 q 440 1035 431 1035 q 576 1103 506 1035 l 576 972 l 571 961 m 547 486 q 539 529 547 509 q 516 562 530 548 q 482 585 502 576 q 440 593 463 593 l 318 593 q 277 584 296 593 q 242 561 257 576 q 219 527 228 547 q 211 486 211 508 l 211 364 q 219 323 211 342 q 242 289 228 303 q 277 266 257 274 q 318 257 296 257 l 440 257 q 481 266 462 257 q 516 289 501 274 q 539 323 530 303 q 547 364 547 342 l 547 486 m 547 -16 l 547 22 q 536 15 542 18 q 525 7 530 11 q 485 -9 506 -3 q 440 -16 463 -16 l 318 -16 q 221 4 265 -16 q 138 62 176 24 q 61 243 61 137 l 61 607 q 138 789 61 712 q 221 846 176 827 q 318 865 265 865 l 440 865 q 623 790 545 865 q 679 706 661 751 q 697 607 697 661 l 697 -16 l 547 -16 z "},"ä":{"ha":758,"x_min":61,"x_max":697,"o":"m 425 908 l 425 1060 l 576 1060 l 576 908 l 425 908 m 182 908 l 182 1060 l 334 1060 l 334 908 l 182 908 m 547 486 q 539 529 547 509 q 516 562 530 548 q 482 585 502 576 q 440 593 463 593 l 318 593 q 277 584 296 593 q 242 561 257 576 q 219 527 228 547 q 211 486 211 508 l 211 364 q 219 323 211 342 q 242 289 228 303 q 277 266 257 274 q 318 257 296 257 l 440 257 q 481 266 462 257 q 516 289 501 274 q 539 323 530 303 q 547 364 547 342 l 547 486 m 547 -16 l 547 22 q 536 15 542 18 q 525 7 530 11 q 485 -9 506 -3 q 440 -16 463 -16 l 318 -16 q 221 4 265 -16 q 138 62 176 24 q 61 243 61 137 l 61 607 q 138 789 61 712 q 221 846 176 827 q 318 865 265 865 l 440 865 q 623 790 545 865 q 679 706 661 751 q 697 607 697 661 l 697 -16 l 547 -16 z "},"å":{"ha":758,"x_min":61,"x_max":697,"o":"m 461 1069 q 455 1101 461 1086 q 437 1127 448 1116 q 411 1145 426 1138 q 379 1152 396 1152 q 348 1145 363 1152 q 321 1127 332 1138 q 302 1101 309 1116 q 296 1069 296 1086 q 302 1038 296 1053 q 321 1011 309 1023 q 348 993 332 1000 q 379 986 363 986 q 411 993 396 986 q 437 1011 426 1000 q 455 1038 448 1023 q 461 1069 461 1053 m 539 1069 q 492 957 539 1002 q 379 908 445 908 q 267 957 313 908 q 218 1069 218 1003 q 231 1131 218 1102 q 267 1182 243 1159 q 379 1229 311 1229 q 440 1217 412 1229 q 492 1182 469 1206 q 527 1131 515 1159 q 539 1069 539 1102 m 547 486 q 539 529 547 509 q 516 562 530 548 q 482 585 502 576 q 440 593 463 593 l 318 593 q 277 584 296 593 q 242 561 257 576 q 219 527 228 547 q 211 486 211 508 l 211 364 q 219 323 211 342 q 242 289 228 303 q 277 266 257 274 q 318 257 296 257 l 440 257 q 481 266 462 257 q 516 289 501 274 q 539 323 530 303 q 547 364 547 342 l 547 486 m 547 -16 l 547 22 q 536 15 542 18 q 525 7 530 11 q 485 -9 506 -3 q 440 -16 463 -16 l 318 -16 q 221 4 265 -16 q 138 62 176 24 q 61 243 61 137 l 61 607 q 138 789 61 712 q 221 846 176 827 q 318 865 265 865 l 440 865 q 623 790 545 865 q 679 706 661 751 q 697 607 697 661 l 697 -16 l 547 -16 z "},"æ":{"ha":1122,"x_min":61,"x_max":1063,"o":"m 547 486 q 539 529 547 509 q 516 562 530 548 q 482 585 502 576 q 440 593 463 593 l 318 593 q 277 584 296 593 q 242 561 257 576 q 219 527 228 547 q 211 486 211 508 l 211 364 q 219 323 211 342 q 242 289 228 303 q 277 266 257 274 q 318 257 296 257 l 440 257 q 481 266 462 257 q 516 289 501 274 q 539 323 530 303 q 547 364 547 342 l 547 486 m 852 -16 q 770 -2 808 -16 q 697 39 732 12 l 697 -16 l 547 -16 l 547 22 q 536 15 542 18 q 525 7 530 11 q 485 -9 506 -3 q 440 -16 463 -16 l 318 -16 q 221 4 265 -16 q 138 62 176 24 q 61 243 61 137 l 61 607 q 138 789 61 712 q 221 846 176 827 q 318 865 265 865 l 392 865 q 463 856 429 865 q 528 827 498 846 q 581 783 557 809 q 621 724 605 756 q 655 775 634 752 q 703 817 675 798 q 852 865 771 865 l 1063 865 l 1063 593 l 804 593 q 766 586 785 593 q 733 566 748 578 q 709 536 719 553 q 697 500 700 519 l 940 500 l 940 350 l 697 350 q 709 313 700 330 q 733 284 719 296 q 766 264 748 271 q 804 257 785 257 l 1063 257 l 1063 -16 l 852 -16 z "},"ç":{"ha":758,"x_min":61,"x_max":697,"o":"m 471 -16 l 464 -40 q 518 -81 498 -52 q 539 -146 539 -110 q 531 -190 539 -170 q 507 -225 522 -210 q 471 -250 492 -241 q 428 -258 451 -258 l 311 -258 l 334 -192 l 428 -192 q 460 -178 447 -192 q 473 -146 473 -165 q 460 -113 473 -127 q 428 -100 447 -100 l 349 -100 l 367 -16 l 318 -16 q 221 4 265 -16 q 138 62 176 24 q 61 243 61 137 l 61 607 q 138 789 61 712 q 221 846 176 827 q 318 865 265 865 l 697 865 l 697 593 l 318 593 q 277 584 296 593 q 242 561 257 576 q 219 527 228 547 q 211 486 211 508 l 211 364 q 219 323 211 342 q 242 289 228 303 q 277 266 257 274 q 318 257 296 257 l 697 257 l 697 -16 l 471 -16 z "},"è":{"ha":758,"x_min":61,"x_max":697,"o":"m 335 908 l 221 1108 l 353 1108 l 437 908 l 335 908 m 318 -16 q 221 4 265 -16 q 138 62 176 24 q 61 243 61 137 l 61 607 q 138 789 61 712 q 221 846 176 827 q 318 865 265 865 l 697 865 l 697 593 l 318 593 q 280 586 298 593 q 248 566 262 578 q 223 536 233 553 q 211 500 214 519 l 576 500 l 576 350 l 211 350 q 223 313 214 330 q 248 284 233 296 q 280 264 262 271 q 318 257 298 257 l 697 257 l 697 -16 l 318 -16 z "},"é":{"ha":758,"x_min":61,"x_max":697,"o":"m 424 908 l 321 908 l 406 1108 l 538 1108 l 424 908 m 318 -16 q 221 4 265 -16 q 138 62 176 24 q 61 243 61 137 l 61 607 q 138 789 61 712 q 221 846 176 827 q 318 865 265 865 l 697 865 l 697 593 l 318 593 q 280 586 298 593 q 248 566 262 578 q 223 536 233 553 q 211 500 214 519 l 576 500 l 576 350 l 211 350 q 223 313 214 330 q 248 284 233 296 q 280 264 262 271 q 318 257 298 257 l 697 257 l 697 -16 l 318 -16 z "},"ê":{"ha":758,"x_min":61,"x_max":697,"o":"m 444 908 l 379 1000 l 314 908 l 208 908 l 322 1108 l 436 1108 l 549 908 l 444 908 m 318 -16 q 221 4 265 -16 q 138 62 176 24 q 61 243 61 137 l 61 607 q 138 789 61 712 q 221 846 176 827 q 318 865 265 865 l 697 865 l 697 593 l 318 593 q 280 586 298 593 q 248 566 262 578 q 223 536 233 553 q 211 500 214 519 l 576 500 l 576 350 l 211 350 q 223 313 214 330 q 248 284 233 296 q 280 264 262 271 q 318 257 298 257 l 697 257 l 697 -16 l 318 -16 z "},"ë":{"ha":758,"x_min":61,"x_max":697,"o":"m 425 908 l 425 1060 l 576 1060 l 576 908 l 425 908 m 182 908 l 182 1060 l 334 1060 l 334 908 l 182 908 m 318 -16 q 221 4 265 -16 q 138 62 176 24 q 61 243 61 137 l 61 607 q 138 789 61 712 q 221 846 176 827 q 318 865 265 865 l 697 865 l 697 593 l 318 593 q 280 586 298 593 q 248 566 262 578 q 223 536 233 553 q 211 500 214 519 l 576 500 l 576 350 l 211 350 q 223 313 214 330 q 248 284 233 296 q 280 264 262 271 q 318 257 298 257 l 697 257 l 697 -16 l 318 -16 z "},"ì":{"ha":272,"x_min":-22,"x_max":211,"o":"m 92 908 l -22 1108 l 110 1108 l 195 908 l 92 908 m 61 -16 l 61 865 l 211 865 l 211 -16 l 61 -16 z "},"í":{"ha":272,"x_min":61,"x_max":294,"o":"m 180 908 l 78 908 l 163 1108 l 294 1108 l 180 908 m 61 -16 l 61 865 l 211 865 l 211 -16 l 61 -16 z "},"î":{"ha":272,"x_min":-35,"x_max":306,"o":"m 201 908 l 136 1000 l 71 908 l -35 908 l 79 1108 l 193 1108 l 306 908 l 201 908 m 61 -16 l 61 865 l 211 865 l 211 -16 l 61 -16 z "},"ï":{"ha":272,"x_min":-61,"x_max":334,"o":"m -61 908 l -61 1060 l 90 1060 l 90 908 l -61 908 m 182 908 l 182 1060 l 334 1060 l 334 908 l 182 908 m 61 -16 l 61 865 l 211 865 l 211 -16 l 61 -16 z "},"ð":{"ha":758,"x_min":61,"x_max":819,"o":"m 547 486 q 539 527 547 508 q 516 561 530 547 q 481 584 501 576 q 440 593 462 593 l 318 593 q 277 584 296 593 q 242 561 257 576 q 219 527 228 547 q 211 486 211 508 l 211 364 q 219 323 211 342 q 242 289 228 303 q 277 266 257 274 q 318 257 296 257 l 440 257 q 482 266 463 257 q 516 288 502 274 q 539 322 530 302 q 547 364 547 342 l 547 486 m 697 897 l 697 243 q 679 144 697 189 q 623 61 661 99 q 440 -16 546 -16 l 318 -16 q 221 4 265 -16 q 138 62 176 24 q 61 243 61 137 l 61 607 q 138 789 61 712 q 221 846 176 827 q 318 865 265 865 l 440 865 q 485 860 463 865 q 525 843 506 854 q 536 836 530 840 q 547 829 542 833 l 547 897 l 425 897 l 425 1047 l 819 1047 l 819 897 l 697 897 z "},"ñ":{"ha":758,"x_min":61,"x_max":697,"o":"m 571 961 q 510 922 543 935 q 440 908 478 908 q 408 915 426 908 q 371 936 391 922 q 318 957 338 957 q 251 941 286 957 q 182 889 216 924 l 182 1025 q 318 1083 240 1083 q 350 1076 333 1083 q 387 1057 368 1069 q 417 1041 404 1046 q 440 1035 431 1035 q 576 1103 506 1035 l 576 972 l 571 961 m 547 -16 l 547 486 q 539 529 547 509 q 516 562 530 548 q 482 585 502 576 q 440 593 463 593 l 318 593 q 277 584 296 593 q 242 561 257 576 q 219 527 228 547 q 211 486 211 508 l 211 -16 l 61 -16 l 61 607 q 79 705 61 660 q 136 789 98 750 q 318 865 212 865 l 440 865 q 623 790 545 865 q 679 706 661 751 q 697 607 697 661 l 697 -16 l 547 -16 z "},"ò":{"ha":758,"x_min":61,"x_max":697,"o":"m 335 908 l 221 1108 l 353 1108 l 437 908 l 335 908 m 547 486 q 539 527 547 508 q 516 561 530 547 q 481 584 501 576 q 440 593 462 593 l 318 593 q 277 584 296 593 q 242 561 257 576 q 219 527 228 547 q 211 486 211 508 l 211 364 q 219 323 211 342 q 242 289 228 303 q 277 266 257 274 q 318 257 296 257 l 440 257 q 482 266 463 257 q 516 288 502 274 q 539 322 530 302 q 547 364 547 342 l 547 486 m 697 243 q 679 144 697 189 q 623 61 661 99 q 440 -16 546 -16 l 318 -16 q 136 61 212 -16 q 79 144 98 99 q 61 243 61 190 l 61 607 q 79 705 61 660 q 136 789 98 750 q 318 865 212 865 l 440 865 q 621 789 545 865 q 697 607 697 712 l 697 243 z "},"ó":{"ha":758,"x_min":61,"x_max":697,"o":"m 424 908 l 321 908 l 406 1108 l 538 1108 l 424 908 m 547 486 q 539 527 547 508 q 516 561 530 547 q 481 584 501 576 q 440 593 462 593 l 318 593 q 277 584 296 593 q 242 561 257 576 q 219 527 228 547 q 211 486 211 508 l 211 364 q 219 323 211 342 q 242 289 228 303 q 277 266 257 274 q 318 257 296 257 l 440 257 q 482 266 463 257 q 516 288 502 274 q 539 322 530 302 q 547 364 547 342 l 547 486 m 697 243 q 679 144 697 189 q 623 61 661 99 q 440 -16 546 -16 l 318 -16 q 136 61 212 -16 q 79 144 98 99 q 61 243 61 190 l 61 607 q 79 705 61 660 q 136 789 98 750 q 318 865 212 865 l 440 865 q 621 789 545 865 q 697 607 697 712 l 697 243 z "},"ô":{"ha":758,"x_min":61,"x_max":697,"o":"m 444 908 l 379 1000 l 314 908 l 208 908 l 322 1108 l 436 1108 l 549 908 l 444 908 m 547 486 q 539 527 547 508 q 516 561 530 547 q 481 584 501 576 q 440 593 462 593 l 318 593 q 277 584 296 593 q 242 561 257 576 q 219 527 228 547 q 211 486 211 508 l 211 364 q 219 323 211 342 q 242 289 228 303 q 277 266 257 274 q 318 257 296 257 l 440 257 q 482 266 463 257 q 516 288 502 274 q 539 322 530 302 q 547 364 547 342 l 547 486 m 697 243 q 679 144 697 189 q 623 61 661 99 q 440 -16 546 -16 l 318 -16 q 136 61 212 -16 q 79 144 98 99 q 61 243 61 190 l 61 607 q 79 705 61 660 q 136 789 98 750 q 318 865 212 865 l 440 865 q 621 789 545 865 q 697 607 697 712 l 697 243 z "},"õ":{"ha":758,"x_min":61,"x_max":697,"o":"m 571 961 q 510 922 543 935 q 440 908 478 908 q 408 915 426 908 q 371 936 391 922 q 318 957 338 957 q 251 941 286 957 q 182 889 216 924 l 182 1025 q 318 1083 240 1083 q 350 1076 333 1083 q 387 1057 368 1069 q 417 1041 404 1046 q 440 1035 431 1035 q 576 1103 506 1035 l 576 972 l 571 961 m 547 486 q 539 527 547 508 q 516 561 530 547 q 481 584 501 576 q 440 593 462 593 l 318 593 q 277 584 296 593 q 242 561 257 576 q 219 527 228 547 q 211 486 211 508 l 211 364 q 219 323 211 342 q 242 289 228 303 q 277 266 257 274 q 318 257 296 257 l 440 257 q 482 266 463 257 q 516 288 502 274 q 539 322 530 302 q 547 364 547 342 l 547 486 m 697 243 q 679 144 697 189 q 623 61 661 99 q 440 -16 546 -16 l 318 -16 q 136 61 212 -16 q 79 144 98 99 q 61 243 61 190 l 61 607 q 79 705 61 660 q 136 789 98 750 q 318 865 212 865 l 440 865 q 621 789 545 865 q 697 607 697 712 l 697 243 z "},"ö":{"ha":758,"x_min":61,"x_max":697,"o":"m 182 908 l 182 1060 l 334 1060 l 334 908 l 182 908 m 425 908 l 425 1060 l 576 1060 l 576 908 l 425 908 m 547 486 q 539 527 547 508 q 516 561 530 547 q 481 584 501 576 q 440 593 462 593 l 318 593 q 277 584 296 593 q 242 561 257 576 q 219 527 228 547 q 211 486 211 508 l 211 364 q 219 323 211 342 q 242 289 228 303 q 277 266 257 274 q 318 257 296 257 l 440 257 q 482 266 463 257 q 516 288 502 274 q 539 322 530 302 q 547 364 547 342 l 547 486 m 697 243 q 679 144 697 189 q 623 61 661 99 q 440 -16 546 -16 l 318 -16 q 136 61 212 -16 q 79 144 98 99 q 61 243 61 190 l 61 607 q 79 705 61 660 q 136 789 98 750 q 318 865 212 865 l 440 865 q 621 789 545 865 q 697 607 697 712 l 697 243 z "},"÷":{"ha":636,"x_min":61,"x_max":576,"o":"m 218 581 l 218 781 l 418 781 l 418 581 l 218 581 m 218 71 l 218 269 l 418 269 l 418 71 l 218 71 m 61 363 l 61 489 l 576 489 l 576 363 l 61 363 z "},"ø":{"ha":758,"x_min":-5,"x_max":762,"o":"m 211 364 q 227 309 211 334 l 465 589 q 440 593 455 593 l 318 593 q 277 584 296 593 q 242 561 257 576 q 219 527 228 547 q 211 486 211 508 l 211 364 m 547 486 q 530 541 547 517 l 292 260 q 304 258 298 258 q 318 257 311 257 l 440 257 q 482 266 463 257 q 516 288 502 274 q 539 322 530 302 q 547 364 547 342 l 547 486 m 675 711 q 692 661 686 687 q 697 607 697 635 l 697 243 q 679 144 697 189 q 623 61 661 99 q 440 -16 546 -16 l 318 -16 q 129 69 205 -16 l 53 -21 l -5 36 l 82 140 q 66 190 71 163 q 61 243 61 216 l 61 607 q 79 705 61 660 q 136 789 98 750 q 318 865 212 865 l 440 865 q 544 844 497 865 q 628 782 590 823 l 705 871 l 762 814 l 675 711 z "},"ù":{"ha":758,"x_min":61,"x_max":697,"o":"m 335 908 l 221 1108 l 353 1108 l 437 908 l 335 908 m 697 243 q 679 144 697 189 q 623 61 661 99 q 440 -16 546 -16 l 318 -16 q 136 61 212 -16 q 79 144 98 99 q 61 243 61 190 l 61 865 l 211 865 l 211 364 q 219 323 211 342 q 242 289 228 303 q 277 266 257 274 q 318 257 296 257 l 440 257 q 482 266 463 257 q 516 288 502 274 q 539 322 530 302 q 547 364 547 342 l 547 865 l 697 865 l 697 243 z "},"ú":{"ha":758,"x_min":61,"x_max":697,"o":"m 424 908 l 321 908 l 406 1108 l 538 1108 l 424 908 m 697 243 q 679 144 697 189 q 623 61 661 99 q 440 -16 546 -16 l 318 -16 q 136 61 212 -16 q 79 144 98 99 q 61 243 61 190 l 61 865 l 211 865 l 211 364 q 219 323 211 342 q 242 289 228 303 q 277 266 257 274 q 318 257 296 257 l 440 257 q 482 266 463 257 q 516 288 502 274 q 539 322 530 302 q 547 364 547 342 l 547 865 l 697 865 l 697 243 z "},"û":{"ha":758,"x_min":61,"x_max":697,"o":"m 444 908 l 379 1000 l 314 908 l 208 908 l 322 1108 l 436 1108 l 549 908 l 444 908 m 697 243 q 679 144 697 189 q 623 61 661 99 q 440 -16 546 -16 l 318 -16 q 136 61 212 -16 q 79 144 98 99 q 61 243 61 190 l 61 865 l 211 865 l 211 364 q 219 323 211 342 q 242 289 228 303 q 277 266 257 274 q 318 257 296 257 l 440 257 q 482 266 463 257 q 516 288 502 274 q 539 322 530 302 q 547 364 547 342 l 547 865 l 697 865 l 697 243 z "},"ü":{"ha":758,"x_min":61,"x_max":697,"o":"m 182 908 l 182 1060 l 334 1060 l 334 908 l 182 908 m 425 908 l 425 1060 l 576 1060 l 576 908 l 425 908 m 697 243 q 679 144 697 189 q 623 61 661 99 q 440 -16 546 -16 l 318 -16 q 136 61 212 -16 q 79 144 98 99 q 61 243 61 190 l 61 865 l 211 865 l 211 364 q 219 323 211 342 q 242 289 228 303 q 277 266 257 274 q 318 257 296 257 l 440 257 q 482 266 463 257 q 516 288 502 274 q 539 322 530 302 q 547 364 547 342 l 547 865 l 697 865 l 697 243 z "},"ý":{"ha":758,"x_min":61,"x_max":697,"o":"m 424 908 l 321 908 l 406 1108 l 538 1108 l 424 908 m 697 -122 q 679 -221 697 -176 q 623 -304 661 -266 q 539 -361 584 -343 q 440 -379 494 -379 l 304 -379 l 304 -107 l 440 -107 q 482 -99 463 -107 q 516 -77 502 -91 q 539 -43 530 -62 q 547 0 547 -23 l 547 22 q 536 15 542 18 q 525 7 530 11 q 485 -9 506 -3 q 440 -16 463 -16 l 318 -16 q 221 4 265 -16 q 138 62 176 24 q 61 243 61 137 l 61 865 l 211 865 l 211 364 q 219 323 211 342 q 242 289 228 303 q 277 266 257 274 q 318 257 296 257 l 440 257 q 482 266 463 257 q 516 288 502 274 q 539 322 530 302 q 547 364 547 342 l 547 865 l 697 865 l 697 -122 z "},"þ":{"ha":758,"x_min":61,"x_max":697,"o":"m 547 364 q 539 405 547 386 q 516 439 530 425 q 481 462 501 454 q 440 471 462 471 l 211 471 l 211 257 l 440 257 q 481 266 462 257 q 516 289 501 274 q 539 323 530 303 q 547 364 547 342 m 697 243 q 621 62 697 137 q 440 -16 544 -16 l 211 -16 l 211 -258 l 61 -258 l 61 986 l 211 986 l 211 743 l 440 743 q 621 667 545 743 q 697 486 697 592 l 697 243 z "},"ÿ":{"ha":758,"x_min":61,"x_max":697,"o":"m 425 908 l 425 1060 l 576 1060 l 576 908 l 425 908 m 182 908 l 182 1060 l 334 1060 l 334 908 l 182 908 m 697 -122 q 679 -221 697 -176 q 623 -304 661 -266 q 539 -361 584 -343 q 440 -379 494 -379 l 304 -379 l 304 -107 l 440 -107 q 482 -99 463 -107 q 516 -77 502 -91 q 539 -43 530 -62 q 547 0 547 -23 l 547 22 q 536 15 542 18 q 525 7 530 11 q 485 -9 506 -3 q 440 -16 463 -16 l 318 -16 q 221 4 265 -16 q 138 62 176 24 q 61 243 61 137 l 61 865 l 211 865 l 211 364 q 219 323 211 342 q 242 289 228 303 q 277 266 257 274 q 318 257 296 257 l 440 257 q 482 266 463 257 q 516 288 502 274 q 539 322 530 302 q 547 364 547 342 l 547 865 l 697 865 l 697 -122 z "},"¯":{"ha":576,"x_min":0,"x_max":576,"o":"m 0 836 l 0 986 l 576 986 l 576 836 l 0 836 z "},"ˉ":{"ha":576,"x_min":0,"x_max":576,"o":"m 0 836 l 0 986 l 576 986 l 576 836 l 0 836 z "},"ı":{"ha":272,"x_min":61,"x_max":211,"o":"m 61 -16 l 61 865 l 211 865 l 211 -16 l 61 -16 z "},"ˇ":{"ha":441,"x_min":52,"x_max":392,"o":"m 278 787 l 164 787 l 52 986 l 155 986 l 221 896 l 286 986 l 392 986 l 278 787 z "},"˘":{"ha":1400,"x_min":60,"x_max":1339,"o":"m 465 278 l 465 532 l 572 532 l 572 278 l 465 278 m 1196 779 l 1186 896 l 970 896 l 970 766 l 1071 766 l 1071 832 l 1160 832 l 1160 612 l 1071 612 l 1071 676 l 878 676 l 878 986 l 1282 986 l 1282 779 l 1196 779 m 1244 146 q 1105 221 1244 221 l 961 221 l 961 311 l 1120 311 q 1152 315 1136 311 q 1182 329 1168 319 q 1213 378 1213 349 q 1204 406 1213 395 q 1181 427 1196 418 q 1147 438 1165 434 q 1108 441 1129 441 l 793 441 l 946 74 l 1105 74 q 1162 77 1139 74 q 1200 85 1185 79 q 1244 146 1244 102 m 180 441 l 180 75 l 846 75 l 818 146 l 514 146 l 551 235 l 782 235 l 700 441 l 693 441 l 693 530 l 760 530 l 760 677 l 465 677 l 465 897 l 358 897 l 358 441 l 180 441 m 1339 136 q 1275 21 1339 62 q 1217 -6 1248 3 q 1147 -16 1186 -16 l 90 -16 l 90 529 l 267 529 l 267 897 l 151 897 l 151 823 l 60 823 l 72 986 l 627 986 l 627 897 l 559 897 l 559 768 l 851 768 l 851 529 l 1197 529 l 1197 647 l 1286 647 l 1286 456 q 1301 422 1295 440 q 1307 382 1307 404 q 1254 272 1307 311 q 1318 219 1297 254 q 1339 136 1339 184 z "},"˚":{"ha":441,"x_min":61,"x_max":382,"o":"m 304 827 q 298 858 304 843 q 280 884 291 873 q 253 902 269 895 q 221 908 238 908 q 189 902 204 908 q 163 884 174 895 q 145 858 152 873 q 139 827 139 843 q 145 795 139 810 q 163 768 152 780 q 189 750 174 757 q 221 743 204 743 q 253 750 238 743 q 280 768 269 757 q 298 795 291 780 q 304 827 304 810 m 382 827 q 335 714 382 761 q 282 678 311 690 q 221 665 254 665 q 109 714 157 665 q 61 827 61 760 q 73 887 61 859 q 109 939 85 916 q 221 986 155 986 q 282 975 254 986 q 335 939 311 963 q 382 827 382 892 z "},"−":{"ha":636,"x_min":61,"x_max":576,"o":"m 61 363 l 61 489 l 576 489 l 576 363 l 61 363 z "}," ":{"ha":547,"x_min":0,"x_max":0,"o":""}}}
